<svg width="2353pt" height="692pt"
 viewBox="0.00 0.00 2352.90 692.00" xmlns="http://www.w3.org/2000/svg" xmlns:xlink="http://www.w3.org/1999/xlink">
<defs>
<style>
svg {
  color: black;
  background-color: white;
}

g.graph>polygon {
  fill: white;
  stroke: none
}

text {
  stroke: none;
  fill: black;
  font-family: sans-serif;
}

g.node>ellipse {
  fill: none;
  stroke: black;
}

g.edge>path {
  fill: none;
  stroke: black;
}

g.edge>polygon {
  fill: black;
  stroke: white;
}

@media (prefers-color-scheme: dark) {
  svg {
    color: white;
    background-color: black;
  }

  g.graph>polygon {
    fill: black;
    stroke: none
  }

  text {
    stroke: none;
    fill: white;
  }

  g.node>ellipse {
    fill: none;
    stroke: white;
  }

  g.edge>path {
    fill: none;
    stroke: white;
  }

  g.edge>polygon {
    fill: white;
    stroke: white;
  }
}
</style>
</defs>
<g id="graph0" class="graph" transform="scale(1 1) rotate(0) translate(4 688)">
<title>dependencies</title>
<polygon   points="-4,4 -4,-688 2348.9,-688 2348.9,4 -4,4"/>
<!-- n0 -->
<g id="node1" class="node">
<title>n0</title>
<ellipse   cx="2043.9" cy="-522" rx="80.69" ry="18"/>
<text text-anchor="middle" x="2043.9" y="-518.3"  font-size="14.00">ab_glyph_rasterizer</text>
</g>
<!-- n1 -->
<g id="node2" class="node">
<title>n1</title>
<ellipse   cx="1764.9" cy="-234" rx="28.7" ry="18"/>
<text text-anchor="middle" x="1764.9" y="-230.3"  font-size="14.00">adler</text>
</g>
<!-- n2 -->
<g id="node3" class="node">
<title>n2</title>
<ellipse   cx="1584.9" cy="-306" rx="30.59" ry="18"/>
<text text-anchor="middle" x="1584.9" y="-302.3"  font-size="14.00">ahash</text>
</g>
<!-- n3 -->
<g id="node4" class="node">
<title>n3</title>
<ellipse   cx="1438.9" cy="-234" rx="48.99" ry="18"/>
<text text-anchor="middle" x="1438.9" y="-230.3"  font-size="14.00">getrandom</text>
</g>
<!-- n2&#45;&gt;n3 -->
<g id="edge66" class="edge">
<title>n2&#45;&gt;n3</title>
<path   d="M1561.76,-293.91C1538.89,-282.94 1503.51,-265.98 1476.57,-253.06"/>
<polygon   points="1477.96,-249.85 1467.43,-248.68 1474.94,-256.16 1477.96,-249.85"/>
</g>
<!-- n4 -->
<g id="node5" class="node">
<title>n4</title>
<ellipse   cx="1772.9" cy="-90" rx="44.39" ry="18"/>
<text text-anchor="middle" x="1772.9" y="-86.3"  font-size="14.00">once_cell</text>
</g>
<!-- n2&#45;&gt;n4 -->
<g id="edge67" class="edge">
<title>n2&#45;&gt;n4</title>
<path   d="M1580.86,-287.68C1574.44,-255.46 1565.87,-185.8 1599.9,-144 1628.35,-109.04 1679.27,-96.62 1718.52,-92.46"/>
<polygon   points="1718.85,-95.94 1728.49,-91.55 1718.21,-88.97 1718.85,-95.94"/>
</g>
<!-- n5 -->
<g id="node6" class="node">
<title>n5</title>
<ellipse   cx="548.9" cy="-162" rx="61.99" ry="18"/>
<text text-anchor="middle" x="548.9" y="-158.3"  font-size="14.00">version_check</text>
</g>
<!-- n2&#45;&gt;n5 -->
<g id="edge68" class="edge">
<title>n2&#45;&gt;n5</title>
<path   d="M1561.48,-294.19C1556.1,-291.95 1550.36,-289.74 1544.9,-288 1473.8,-265.31 1453.15,-270.65 1380.9,-252 1326.57,-237.98 1315.08,-226.14 1259.9,-216 1198,-204.62 785.75,-177.87 618.85,-167.36"/>
<polygon   points="618.9,-163.85 608.7,-166.72 618.46,-170.84 618.9,-163.85"/>
</g>
<!-- n8 -->
<g id="node9" class="node">
<title>n8</title>
<ellipse   cx="1377.9" cy="-162" rx="27" ry="18"/>
<text text-anchor="middle" x="1377.9" y="-158.3"  font-size="14.00">libc</text>
</g>
<!-- n3&#45;&gt;n8 -->
<g id="edge70" class="edge">
<title>n3&#45;&gt;n8</title>
<path   d="M1424.75,-216.76C1416.75,-207.59 1406.62,-195.96 1397.83,-185.88"/>
<polygon   points="1400.34,-183.43 1391.13,-178.19 1395.06,-188.03 1400.34,-183.43"/>
</g>
<!-- n12 -->
<g id="node13" class="node">
<title>n12</title>
<ellipse   cx="2053.9" cy="-90" rx="30.59" ry="18"/>
<text text-anchor="middle" x="2053.9" y="-86.3"  font-size="14.00">cfg&#45;if</text>
</g>
<!-- n3&#45;&gt;n12 -->
<g id="edge69" class="edge">
<title>n3&#45;&gt;n12</title>
<path   d="M1482.9,-226.21C1537.83,-217.36 1634.48,-200.57 1715.9,-180 1767.41,-166.99 1778.67,-158.13 1829.9,-144 1894.59,-126.16 1970.79,-108.92 2015.57,-99.17"/>
<polygon   points="2016.4,-102.57 2025.44,-97.03 2014.92,-95.73 2016.4,-102.57"/>
</g>
<!-- n46 -->
<g id="node47" class="node">
<title>n46</title>
<ellipse   cx="1449.9" cy="-162" rx="27" ry="18"/>
<text text-anchor="middle" x="1449.9" y="-158.3"  font-size="14.00">wasi</text>
</g>
<!-- n3&#45;&gt;n46 -->
<g id="edge71" class="edge">
<title>n3&#45;&gt;n46</title>
<path   d="M1441.61,-215.7C1442.83,-207.98 1444.28,-198.71 1445.63,-190.11"/>
<polygon   points="1449.11,-190.53 1447.21,-180.1 1442.2,-189.44 1449.11,-190.53"/>
</g>
<!-- n6 -->
<g id="node7" class="node">
<title>n6</title>
<ellipse   cx="1135.9" cy="-306" rx="27" ry="18"/>
<text text-anchor="middle" x="1135.9" y="-302.3"  font-size="14.00">atty</text>
</g>
<!-- n7 -->
<g id="node8" class="node">
<title>n7</title>
<ellipse   cx="1202.9" cy="-234" rx="48.19" ry="18"/>
<text text-anchor="middle" x="1202.9" y="-230.3"  font-size="14.00">hermit&#45;abi</text>
</g>
<!-- n6&#45;&gt;n7 -->
<g id="edge19" class="edge">
<title>n6&#45;&gt;n7</title>
<path   d="M1149.78,-290.5C1158.6,-281.28 1170.22,-269.14 1180.35,-258.56"/>
<polygon   points="1183,-260.84 1187.39,-251.2 1177.95,-256 1183,-260.84"/>
</g>
<!-- n6&#45;&gt;n8 -->
<g id="edge20" class="edge">
<title>n6&#45;&gt;n8</title>
<path   d="M1132.37,-287.81C1129.36,-267.85 1127.97,-235.22 1145.9,-216 1206.3,-151.23 1257.59,-207.14 1341.9,-180 1343.82,-179.38 1345.77,-178.68 1347.73,-177.93"/>
<polygon   points="1349.5,-180.97 1357.33,-173.83 1346.76,-174.54 1349.5,-180.97"/>
</g>
<!-- n9 -->
<g id="node10" class="node">
<title>n9</title>
<ellipse   cx="1048.9" cy="-234" rx="34.39" ry="18"/>
<text text-anchor="middle" x="1048.9" y="-230.3"  font-size="14.00">winapi</text>
</g>
<!-- n6&#45;&gt;n9 -->
<g id="edge21" class="edge">
<title>n6&#45;&gt;n9</title>
<path   d="M1119.12,-291.5C1106.57,-281.41 1089.18,-267.41 1074.84,-255.88"/>
<polygon   points="1076.8,-252.96 1066.82,-249.42 1072.41,-258.41 1076.8,-252.96"/>
</g>
<!-- n7&#45;&gt;n8 -->
<g id="edge99" class="edge">
<title>n7&#45;&gt;n8</title>
<path   d="M1236.61,-220.97C1264.94,-210.67 1306.37,-195.13 1341.9,-180 1343.71,-179.23 1345.56,-178.42 1347.43,-177.59"/>
<polygon   points="1349.06,-180.69 1356.7,-173.34 1346.15,-174.32 1349.06,-180.69"/>
</g>
<!-- n75 -->
<g id="node76" class="node">
<title>n75</title>
<ellipse   cx="947.9" cy="-162" rx="115.08" ry="18"/>
<text text-anchor="middle" x="947.9" y="-158.3"  font-size="14.00">winapi&#45;i686&#45;pc&#45;windows&#45;gnu</text>
</g>
<!-- n9&#45;&gt;n75 -->
<g id="edge40" class="edge">
<title>n9&#45;&gt;n75</title>
<path   d="M1028.94,-219.17C1015.16,-209.62 996.53,-196.71 980.6,-185.67"/>
<polygon   points="982.3,-182.58 972.08,-179.76 978.31,-188.34 982.3,-182.58"/>
</g>
<!-- n76 -->
<g id="node77" class="node">
<title>n76</title>
<ellipse   cx="1206.9" cy="-162" rx="126.18" ry="18"/>
<text text-anchor="middle" x="1206.9" y="-158.3"  font-size="14.00">winapi&#45;x86_64&#45;pc&#45;windows&#45;gnu</text>
</g>
<!-- n9&#45;&gt;n76 -->
<g id="edge41" class="edge">
<title>n9&#45;&gt;n76</title>
<path   d="M1074.28,-221.75C1097.56,-211.44 1132.59,-195.92 1160.81,-183.42"/>
<polygon   points="1162.36,-186.56 1170.09,-179.31 1159.53,-180.16 1162.36,-186.56"/>
</g>
<!-- n10 -->
<g id="node11" class="node">
<title>n10</title>
<ellipse   cx="1542.9" cy="-90" rx="37.09" ry="18"/>
<text text-anchor="middle" x="1542.9" y="-86.3"  font-size="14.00">autocfg</text>
</g>
<!-- n11 -->
<g id="node12" class="node">
<title>n11</title>
<ellipse   cx="1578.9" cy="-378" rx="37.09" ry="18"/>
<text text-anchor="middle" x="1578.9" y="-374.3"  font-size="14.00">bitflags</text>
</g>
<!-- n13 -->
<g id="node14" class="node">
<title>n13</title>
<ellipse   cx="213.9" cy="-594" rx="27" ry="18"/>
<text text-anchor="middle" x="213.9" y="-590.3"  font-size="14.00">cidr</text>
</g>
<!-- n14 -->
<g id="node15" class="node">
<title>n14</title>
<ellipse   cx="1041.9" cy="-450" rx="27" ry="18"/>
<text text-anchor="middle" x="1041.9" y="-446.3"  font-size="14.00">clap</text>
</g>
<!-- n14&#45;&gt;n4 -->
<g id="edge15" class="edge">
<title>n14&#45;&gt;n4</title>
<path   d="M1067.91,-444.69C1175.01,-426.78 1578.37,-357.59 1624.9,-324 1699.44,-270.18 1745.37,-166.17 1763.72,-117.42"/>
<polygon   points="1767.05,-118.49 1767.21,-107.89 1760.48,-116.08 1767.05,-118.49"/>
</g>
<!-- n14&#45;&gt;n6 -->
<g id="edge10" class="edge">
<title>n14&#45;&gt;n6</title>
<path   d="M1058.63,-435.51C1070.22,-425.53 1085.38,-411.09 1095.9,-396 1109.46,-376.53 1120.15,-351.73 1127.06,-333.25"/>
<polygon   points="1130.4,-334.31 1130.5,-323.71 1123.82,-331.93 1130.4,-334.31"/>
</g>
<!-- n14&#45;&gt;n11 -->
<g id="edge11" class="edge">
<title>n14&#45;&gt;n11</title>
<path   d="M1068.28,-445.63C1133.42,-437.3 1307.09,-415.05 1451.9,-396 1479.01,-392.43 1509.37,-388.37 1533.61,-385.11"/>
<polygon   points="1534.15,-388.57 1543.59,-383.77 1533.21,-381.63 1534.15,-388.57"/>
</g>
<!-- n15 -->
<g id="node16" class="node">
<title>n15</title>
<ellipse   cx="548.9" cy="-378" rx="51.99" ry="18"/>
<text text-anchor="middle" x="548.9" y="-374.3"  font-size="14.00">clap_derive</text>
</g>
<!-- n14&#45;&gt;n15 -->
<g id="edge12" class="edge">
<title>n14&#45;&gt;n15</title>
<path   d="M1021.42,-437.87C1016.46,-435.59 1011.09,-433.44 1005.9,-432 853.1,-389.53 808.08,-417.05 650.9,-396 635.64,-393.96 619.17,-391.38 604,-388.85"/>
<polygon   points="604.18,-385.33 593.74,-387.11 603.02,-392.23 604.18,-385.33"/>
</g>
<!-- n16 -->
<g id="node17" class="node">
<title>n16</title>
<ellipse   cx="699.9" cy="-378" rx="40.09" ry="18"/>
<text text-anchor="middle" x="699.9" y="-374.3"  font-size="14.00">clap_lex</text>
</g>
<!-- n14&#45;&gt;n16 -->
<g id="edge13" class="edge">
<title>n14&#45;&gt;n16</title>
<path   d="M1021.37,-438.02C1016.42,-435.73 1011.06,-433.55 1005.9,-432 897.1,-399.39 863.59,-421.44 752.9,-396 748.76,-395.05 744.49,-393.93 740.25,-392.72"/>
<polygon   points="741.06,-389.31 730.48,-389.78 739.05,-396.01 741.06,-389.31"/>
</g>
<!-- n17 -->
<g id="node18" class="node">
<title>n17</title>
<ellipse   cx="890.9" cy="-378" rx="46.29" ry="18"/>
<text text-anchor="middle" x="890.9" y="-374.3"  font-size="14.00">indexmap</text>
</g>
<!-- n14&#45;&gt;n17 -->
<g id="edge14" class="edge">
<title>n14&#45;&gt;n17</title>
<path   d="M1020.59,-438.9C1015.76,-436.62 1010.66,-434.22 1005.9,-432 980.27,-420.05 951.36,-406.72 928.94,-396.43"/>
<polygon   points="930.31,-393.2 919.76,-392.21 927.39,-399.56 930.31,-393.2"/>
</g>
<!-- n18 -->
<g id="node19" class="node">
<title>n18</title>
<ellipse   cx="793.9" cy="-378" rx="32.49" ry="18"/>
<text text-anchor="middle" x="793.9" y="-374.3"  font-size="14.00">strsim</text>
</g>
<!-- n14&#45;&gt;n18 -->
<g id="edge16" class="edge">
<title>n14&#45;&gt;n18</title>
<path   d="M1021.29,-438.27C1016.34,-435.97 1011,-433.72 1005.9,-432 932.71,-407.34 909.75,-418.58 835.9,-396 833.3,-395.21 830.65,-394.32 828,-393.38"/>
<polygon   points="829.1,-390.06 818.51,-389.8 826.63,-396.61 829.1,-390.06"/>
</g>
<!-- n19 -->
<g id="node20" class="node">
<title>n19</title>
<ellipse   cx="1041.9" cy="-378" rx="45.49" ry="18"/>
<text text-anchor="middle" x="1041.9" y="-374.3"  font-size="14.00">termcolor</text>
</g>
<!-- n14&#45;&gt;n19 -->
<g id="edge17" class="edge">
<title>n14&#45;&gt;n19</title>
<path   d="M1041.9,-431.7C1041.9,-423.98 1041.9,-414.71 1041.9,-406.11"/>
<polygon   points="1045.4,-406.1 1041.9,-396.1 1038.4,-406.1 1045.4,-406.1"/>
</g>
<!-- n20 -->
<g id="node21" class="node">
<title>n20</title>
<ellipse   cx="436.9" cy="-378" rx="41.69" ry="18"/>
<text text-anchor="middle" x="436.9" y="-374.3"  font-size="14.00">textwrap</text>
</g>
<!-- n14&#45;&gt;n20 -->
<g id="edge18" class="edge">
<title>n14&#45;&gt;n20</title>
<path   d="M1021.83,-437.92C1016.77,-435.58 1011.25,-433.4 1005.9,-432 782.6,-373.72 714.27,-440.85 487.9,-396 484.25,-395.28 480.5,-394.37 476.77,-393.35"/>
<polygon   points="477.61,-389.95 467.03,-390.44 475.61,-396.65 477.61,-389.95"/>
</g>
<!-- n21 -->
<g id="node22" class="node">
<title>n21</title>
<ellipse   cx="156.9" cy="-306" rx="27.1" ry="18"/>
<text text-anchor="middle" x="156.9" y="-302.3"  font-size="14.00">heck</text>
</g>
<!-- n15&#45;&gt;n21 -->
<g id="edge22" class="edge">
<title>n15&#45;&gt;n21</title>
<path   d="M511.03,-365.51C503.42,-363.47 495.44,-361.51 487.9,-360 360.55,-334.5 323.47,-357.17 197.9,-324 194.69,-323.15 191.41,-322.11 188.16,-320.96"/>
<polygon   points="189.24,-317.63 178.65,-317.29 186.72,-324.16 189.24,-317.63"/>
</g>
<!-- n22 -->
<g id="node23" class="node">
<title>n22</title>
<ellipse   cx="486.9" cy="-306" rx="71.49" ry="18"/>
<text text-anchor="middle" x="486.9" y="-302.3"  font-size="14.00">proc&#45;macro&#45;error</text>
</g>
<!-- n15&#45;&gt;n22 -->
<g id="edge23" class="edge">
<title>n15&#45;&gt;n22</title>
<path   d="M534.2,-360.41C526.59,-351.82 517.15,-341.16 508.71,-331.63"/>
<polygon   points="511.16,-329.12 501.91,-323.96 505.92,-333.76 511.16,-329.12"/>
</g>
<!-- n23 -->
<g id="node24" class="node">
<title>n23</title>
<ellipse   cx="304.9" cy="-90" rx="55.79" ry="18"/>
<text text-anchor="middle" x="304.9" y="-86.3"  font-size="14.00">proc&#45;macro2</text>
</g>
<!-- n15&#45;&gt;n23 -->
<g id="edge24" class="edge">
<title>n15&#45;&gt;n23</title>
<path   d="M559.39,-360.35C580.4,-327 625.73,-254.92 626.9,-252 639.07,-221.66 638.54,-212.51 641.9,-180 643.54,-164.08 652.29,-156.16 641.9,-144 607.74,-104.06 458.98,-94.02 370.93,-91.63"/>
<polygon   points="370.85,-88.12 360.77,-91.38 370.68,-95.12 370.85,-88.12"/>
</g>
<!-- n24 -->
<g id="node25" class="node">
<title>n24</title>
<ellipse   cx="275.9" cy="-162" rx="30.59" ry="18"/>
<text text-anchor="middle" x="275.9" y="-158.3"  font-size="14.00">quote</text>
</g>
<!-- n15&#45;&gt;n24 -->
<g id="edge25" class="edge">
<title>n15&#45;&gt;n24</title>
<path   d="M511.7,-365.25C475.84,-353.54 424.49,-335.67 406.9,-324 388.55,-311.84 352.84,-269.02 338.9,-252 321.78,-231.11 304.18,-205.87 291.94,-187.61"/>
<polygon   points="294.84,-185.65 286.4,-179.25 289.01,-189.52 294.84,-185.65"/>
</g>
<!-- n25 -->
<g id="node26" class="node">
<title>n25</title>
<ellipse   cx="203.9" cy="-234" rx="27" ry="18"/>
<text text-anchor="middle" x="203.9" y="-230.3"  font-size="14.00">syn</text>
</g>
<!-- n15&#45;&gt;n25 -->
<g id="edge26" class="edge">
<title>n15&#45;&gt;n25</title>
<path   d="M511.01,-365.6C503.4,-363.55 495.43,-361.57 487.9,-360 431.44,-348.23 274.71,-361.49 230.9,-324 213.22,-308.87 206.88,-282.58 204.73,-262.48"/>
<polygon   points="208.2,-262.04 203.93,-252.34 201.23,-262.59 208.2,-262.04"/>
</g>
<!-- n26 -->
<g id="node27" class="node">
<title>n26</title>
<ellipse   cx="668.9" cy="-306" rx="54.69" ry="18"/>
<text text-anchor="middle" x="668.9" y="-302.3"  font-size="14.00">os_str_bytes</text>
</g>
<!-- n16&#45;&gt;n26 -->
<g id="edge35" class="edge">
<title>n16&#45;&gt;n26</title>
<path   d="M692.39,-360.05C688.86,-352.09 684.58,-342.41 680.64,-333.51"/>
<polygon   points="683.8,-332 676.55,-324.28 677.39,-334.84 683.8,-332"/>
</g>
<!-- n17&#45;&gt;n10 -->
<g id="edge36" class="edge">
<title>n17&#45;&gt;n10</title>
<path   d="M899.87,-360.22C908.44,-341.78 918.6,-311.65 907.9,-288 897.89,-265.91 883.37,-269.79 866.9,-252 839.72,-222.65 825.54,-217.95 812.9,-180 807.84,-164.82 802,-155.72 812.9,-144 859.32,-94.09 1340.76,-90.61 1495.37,-90.79"/>
<polygon   points="1495.5,-94.29 1505.5,-90.81 1495.51,-87.29 1495.5,-94.29"/>
</g>
<!-- n49 -->
<g id="node50" class="node">
<title>n49</title>
<ellipse   cx="819.9" cy="-306" rx="78.79" ry="18"/>
<text text-anchor="middle" x="819.9" y="-302.3"  font-size="14.00">hashbrown v0.12.3</text>
</g>
<!-- n17&#45;&gt;n49 -->
<g id="edge37" class="edge">
<title>n17&#45;&gt;n49</title>
<path   d="M874.78,-361.12C865.79,-352.24 854.39,-341.01 844.32,-331.08"/>
<polygon   points="846.51,-328.33 836.93,-323.8 841.6,-333.31 846.51,-328.33"/>
</g>
<!-- n73 -->
<g id="node74" class="node">
<title>n73</title>
<ellipse   cx="1041.9" cy="-306" rx="49.29" ry="18"/>
<text text-anchor="middle" x="1041.9" y="-302.3"  font-size="14.00">winapi&#45;util</text>
</g>
<!-- n19&#45;&gt;n73 -->
<g id="edge38" class="edge">
<title>n19&#45;&gt;n73</title>
<path   d="M1041.9,-359.7C1041.9,-351.98 1041.9,-342.71 1041.9,-334.11"/>
<polygon   points="1045.4,-334.1 1041.9,-324.1 1038.4,-334.1 1045.4,-334.1"/>
</g>
<!-- n22&#45;&gt;n5 -->
<g id="edge31" class="edge">
<title>n22&#45;&gt;n5</title>
<path   d="M531.1,-291.73C550.26,-283.54 570.8,-270.89 581.9,-252 593.85,-231.64 582.08,-206.18 569.4,-187.72"/>
<polygon   points="572.13,-185.52 563.4,-179.52 566.48,-189.66 572.13,-185.52"/>
</g>
<!-- n22&#45;&gt;n23 -->
<g id="edge28" class="edge">
<title>n22&#45;&gt;n23</title>
<path   d="M534.52,-292.44C556.91,-284.3 582.28,-271.47 598.9,-252 630.63,-214.8 651.47,-181.34 619.9,-144 588.61,-107.01 453.31,-95.82 370.54,-92.45"/>
<polygon   points="370.6,-88.95 360.47,-92.07 370.33,-95.94 370.6,-88.95"/>
</g>
<!-- n22&#45;&gt;n24 -->
<g id="edge29" class="edge">
<title>n22&#45;&gt;n24</title>
<path   d="M456.71,-289.61C437.7,-279.57 412.88,-265.8 391.9,-252 359.03,-230.39 323.44,-202.33 300.48,-183.55"/>
<polygon   points="302.56,-180.73 292.62,-177.08 298.11,-186.13 302.56,-180.73"/>
</g>
<!-- n22&#45;&gt;n25 -->
<g id="edge30" class="edge">
<title>n22&#45;&gt;n25</title>
<path   d="M437.6,-292.81C380.83,-278.76 288.98,-256.05 239.01,-243.69"/>
<polygon   points="239.56,-240.22 229.01,-241.21 237.88,-247.01 239.56,-240.22"/>
</g>
<!-- n67 -->
<g id="node68" class="node">
<title>n67</title>
<ellipse   cx="486.9" cy="-234" rx="86.38" ry="18"/>
<text text-anchor="middle" x="486.9" y="-230.3"  font-size="14.00">proc&#45;macro&#45;error&#45;attr</text>
</g>
<!-- n22&#45;&gt;n67 -->
<g id="edge27" class="edge">
<title>n22&#45;&gt;n67</title>
<path   d="M486.9,-287.7C486.9,-279.98 486.9,-270.71 486.9,-262.11"/>
<polygon   points="490.4,-262.1 486.9,-252.1 483.4,-262.1 490.4,-262.1"/>
</g>
<!-- n68 -->
<g id="node69" class="node">
<title>n68</title>
<ellipse   cx="226.9" cy="-18" rx="59.29" ry="18"/>
<text text-anchor="middle" x="226.9" y="-14.3"  font-size="14.00">unicode&#45;ident</text>
</g>
<!-- n23&#45;&gt;n68 -->
<g id="edge118" class="edge">
<title>n23&#45;&gt;n68</title>
<path   d="M286.8,-72.76C276.57,-63.58 263.6,-51.94 252.35,-41.84"/>
<polygon   points="254.67,-39.22 244.89,-35.15 249.99,-44.43 254.67,-39.22"/>
</g>
<!-- n24&#45;&gt;n23 -->
<g id="edge117" class="edge">
<title>n24&#45;&gt;n23</title>
<path   d="M282.77,-144.41C286.11,-136.34 290.22,-126.43 293.98,-117.35"/>
<polygon   points="297.28,-118.53 297.87,-107.96 290.81,-115.86 297.28,-118.53"/>
</g>
<!-- n25&#45;&gt;n23 -->
<g id="edge114" class="edge">
<title>n25&#45;&gt;n23</title>
<path   d="M207.02,-215.9C211.14,-196.9 219.83,-166.02 235.9,-144 245.08,-131.41 258.08,-120.36 270.31,-111.65"/>
<polygon   points="272.31,-114.53 278.61,-106.01 268.37,-108.74 272.31,-114.53"/>
</g>
<!-- n25&#45;&gt;n24 -->
<g id="edge115" class="edge">
<title>n25&#45;&gt;n24</title>
<path   d="M218.47,-218.83C228.41,-209.16 241.8,-196.15 253.14,-185.12"/>
<polygon   points="255.87,-187.35 260.6,-177.87 250.99,-182.33 255.87,-187.35"/>
</g>
<!-- n25&#45;&gt;n68 -->
<g id="edge116" class="edge">
<title>n25&#45;&gt;n68</title>
<path   d="M205.74,-215.85C209.72,-178.83 219.14,-91.18 223.95,-46.39"/>
<polygon   points="227.45,-46.55 225.04,-36.23 220.49,-45.8 227.45,-46.55"/>
</g>
<!-- n27 -->
<g id="node28" class="node">
<title>n27</title>
<ellipse   cx="1821.9" cy="-450" rx="52.79" ry="18"/>
<text text-anchor="middle" x="1821.9" y="-446.3"  font-size="14.00">color_quant</text>
</g>
<!-- n28 -->
<g id="node29" class="node">
<title>n28</title>
<ellipse   cx="1109.9" cy="-594" rx="27.9" ry="18"/>
<text text-anchor="middle" x="1109.9" y="-590.3"  font-size="14.00">conv</text>
</g>
<!-- n29 -->
<g id="node30" class="node">
<title>n29</title>
<ellipse   cx="1072.9" cy="-522" rx="63.09" ry="18"/>
<text text-anchor="middle" x="1072.9" y="-518.3"  font-size="14.00">custom_derive</text>
</g>
<!-- n28&#45;&gt;n29 -->
<g id="edge42" class="edge">
<title>n28&#45;&gt;n29</title>
<path   d="M1101.31,-576.76C1096.96,-568.53 1091.56,-558.32 1086.65,-549.02"/>
<polygon   points="1089.71,-547.33 1081.95,-540.12 1083.53,-550.6 1089.71,-547.33"/>
</g>
<!-- n30 -->
<g id="node31" class="node">
<title>n30</title>
<ellipse   cx="1880.9" cy="-306" rx="42.79" ry="18"/>
<text text-anchor="middle" x="1880.9" y="-302.3"  font-size="14.00">crc32fast</text>
</g>
<!-- n30&#45;&gt;n12 -->
<g id="edge106" class="edge">
<title>n30&#45;&gt;n12</title>
<path   d="M1910.54,-292.82C1929.65,-283.8 1954,-269.96 1970.9,-252 2007.8,-212.76 2001.09,-191.82 2025.9,-144 2030.54,-135.05 2035.68,-125.27 2040.28,-116.59"/>
<polygon   points="2043.41,-118.15 2045,-107.68 2037.23,-114.87 2043.41,-118.15"/>
</g>
<!-- n31 -->
<g id="node32" class="node">
<title>n31</title>
<ellipse   cx="2178.9" cy="-234" rx="78.79" ry="18"/>
<text text-anchor="middle" x="2178.9" y="-230.3"  font-size="14.00">crossbeam&#45;channel</text>
</g>
<!-- n31&#45;&gt;n12 -->
<g id="edge83" class="edge">
<title>n31&#45;&gt;n12</title>
<path   d="M2183.32,-215.95C2187.27,-196.72 2190.42,-165.35 2175.9,-144 2157.33,-116.71 2121.46,-103.37 2093.4,-96.91"/>
<polygon   points="2093.96,-93.45 2083.46,-94.83 2092.53,-100.3 2093.96,-93.45"/>
</g>
<!-- n32 -->
<g id="node33" class="node">
<title>n32</title>
<ellipse   cx="2100.9" cy="-162" rx="66.09" ry="18"/>
<text text-anchor="middle" x="2100.9" y="-158.3"  font-size="14.00">crossbeam&#45;utils</text>
</g>
<!-- n31&#45;&gt;n32 -->
<g id="edge84" class="edge">
<title>n31&#45;&gt;n32</title>
<path   d="M2160.41,-216.41C2150.4,-207.43 2137.88,-196.19 2126.91,-186.34"/>
<polygon   points="2129.03,-183.54 2119.25,-179.47 2124.35,-188.75 2129.03,-183.54"/>
</g>
<!-- n32&#45;&gt;n4 -->
<g id="edge95" class="edge">
<title>n32&#45;&gt;n4</title>
<path   d="M2050.36,-150.22C1987.89,-136.88 1882.33,-114.36 1821,-101.27"/>
<polygon   points="1821.69,-97.84 1811.18,-99.17 1820.23,-104.68 1821.69,-97.84"/>
</g>
<!-- n32&#45;&gt;n12 -->
<g id="edge94" class="edge">
<title>n32&#45;&gt;n12</title>
<path   d="M2089.52,-144.05C2083.84,-135.59 2076.85,-125.19 2070.58,-115.84"/>
<polygon   points="2073.32,-113.66 2064.84,-107.31 2067.51,-117.56 2073.32,-113.66"/>
</g>
<!-- n33 -->
<g id="node34" class="node">
<title>n33</title>
<ellipse   cx="2078.9" cy="-306" rx="72.29" ry="18"/>
<text text-anchor="middle" x="2078.9" y="-302.3"  font-size="14.00">crossbeam&#45;deque</text>
</g>
<!-- n33&#45;&gt;n12 -->
<g id="edge85" class="edge">
<title>n33&#45;&gt;n12</title>
<path   d="M2139.07,-296.04C2187.98,-287.38 2251.34,-272.55 2266.9,-252 2276.55,-239.24 2272.97,-230.8 2266.9,-216 2237.78,-145 2145.27,-112.18 2092.24,-98.86"/>
<polygon   points="2093.05,-95.45 2082.5,-96.52 2091.41,-102.26 2093.05,-95.45"/>
</g>
<!-- n33&#45;&gt;n32 -->
<g id="edge87" class="edge">
<title>n33&#45;&gt;n32</title>
<path   d="M2080.93,-287.9C2083.13,-269.95 2086.86,-240.93 2090.9,-216 2092.26,-207.55 2093.93,-198.38 2095.5,-190.08"/>
<polygon   points="2098.96,-190.63 2097.42,-180.15 2092.09,-189.3 2098.96,-190.63"/>
</g>
<!-- n34 -->
<g id="node35" class="node">
<title>n34</title>
<ellipse   cx="1889.9" cy="-234" rx="72.29" ry="18"/>
<text text-anchor="middle" x="1889.9" y="-230.3"  font-size="14.00">crossbeam&#45;epoch</text>
</g>
<!-- n33&#45;&gt;n34 -->
<g id="edge86" class="edge">
<title>n33&#45;&gt;n34</title>
<path   d="M2040.19,-290.67C2010.63,-279.72 1969.73,-264.57 1938.06,-252.84"/>
<polygon   points="1939.14,-249.51 1928.55,-249.32 1936.71,-256.07 1939.14,-249.51"/>
</g>
<!-- n34&#45;&gt;n4 -->
<g id="edge92" class="edge">
<title>n34&#45;&gt;n4</title>
<path   d="M1868.58,-216.63C1856.47,-206.76 1841.47,-193.51 1829.9,-180 1812.94,-160.21 1797.26,-134.99 1786.65,-116.45"/>
<polygon   points="1789.68,-114.69 1781.73,-107.69 1783.57,-118.12 1789.68,-114.69"/>
</g>
<!-- n34&#45;&gt;n10 -->
<g id="edge88" class="edge">
<title>n34&#45;&gt;n10</title>
<path   d="M1835.16,-222.15C1824.47,-220.08 1813.33,-217.95 1802.9,-216 1712.82,-199.21 1676.12,-230.85 1599.9,-180 1577.33,-164.95 1561.82,-137.61 1552.74,-117.19"/>
<polygon   points="1555.9,-115.66 1548.8,-107.8 1549.45,-118.38 1555.9,-115.66"/>
</g>
<!-- n34&#45;&gt;n12 -->
<g id="edge89" class="edge">
<title>n34&#45;&gt;n12</title>
<path   d="M1909.03,-216.43C1938.94,-190.53 1996.74,-140.49 2029.57,-112.06"/>
<polygon   points="2032.07,-114.52 2037.34,-105.33 2027.49,-109.23 2032.07,-114.52"/>
</g>
<!-- n34&#45;&gt;n32 -->
<g id="edge90" class="edge">
<title>n34&#45;&gt;n32</title>
<path   d="M1931.33,-219.25C1965.56,-207.9 2014.26,-191.74 2050.7,-179.65"/>
<polygon   points="2052.24,-182.83 2060.63,-176.36 2050.04,-176.19 2052.24,-182.83"/>
</g>
<!-- n35 -->
<g id="node36" class="node">
<title>n35</title>
<ellipse   cx="1657.9" cy="-162" rx="49.29" ry="18"/>
<text text-anchor="middle" x="1657.9" y="-158.3"  font-size="14.00">memoffset</text>
</g>
<!-- n34&#45;&gt;n35 -->
<g id="edge91" class="edge">
<title>n34&#45;&gt;n35</title>
<path   d="M1845.71,-219.67C1805.27,-207.47 1745.62,-189.47 1704.45,-177.05"/>
<polygon   points="1705.24,-173.63 1694.66,-174.09 1703.22,-180.33 1705.24,-173.63"/>
</g>
<!-- n36 -->
<g id="node37" class="node">
<title>n36</title>
<ellipse   cx="1889.9" cy="-162" rx="50.89" ry="18"/>
<text text-anchor="middle" x="1889.9" y="-158.3"  font-size="14.00">scopeguard</text>
</g>
<!-- n34&#45;&gt;n36 -->
<g id="edge93" class="edge">
<title>n34&#45;&gt;n36</title>
<path   d="M1889.9,-215.7C1889.9,-207.98 1889.9,-198.71 1889.9,-190.11"/>
<polygon   points="1893.4,-190.1 1889.9,-180.1 1886.4,-190.1 1893.4,-190.1"/>
</g>
<!-- n35&#45;&gt;n10 -->
<g id="edge96" class="edge">
<title>n35&#45;&gt;n10</title>
<path   d="M1633.51,-146.15C1616.17,-135.6 1592.74,-121.34 1574.05,-109.96"/>
<polygon   points="1575.66,-106.85 1565.3,-104.64 1572.02,-112.83 1575.66,-106.85"/>
</g>
<!-- n37 -->
<g id="node38" class="node">
<title>n37</title>
<ellipse   cx="2019.9" cy="-378" rx="30.59" ry="18"/>
<text text-anchor="middle" x="2019.9" y="-374.3"  font-size="14.00">either</text>
</g>
<!-- n38 -->
<g id="node39" class="node">
<title>n38</title>
<ellipse   cx="921.9" cy="-450" rx="74.99" ry="18"/>
<text text-anchor="middle" x="921.9" y="-446.3"  font-size="14.00">fast_image_resize</text>
</g>
<!-- n39 -->
<g id="node40" class="node">
<title>n39</title>
<ellipse   cx="922.9" cy="-234" rx="47.39" ry="18"/>
<text text-anchor="middle" x="922.9" y="-230.3"  font-size="14.00">num&#45;traits</text>
</g>
<!-- n38&#45;&gt;n39 -->
<g id="edge56" class="edge">
<title>n38&#45;&gt;n39</title>
<path   d="M931.85,-431.98C937.17,-421.89 943.17,-408.64 945.9,-396 950.43,-375.01 942.2,-294.5 940.9,-288 939.13,-279.19 936.29,-269.84 933.38,-261.48"/>
<polygon   points="936.59,-260.07 929.87,-251.88 930.02,-262.47 936.59,-260.07"/>
</g>
<!-- n40 -->
<g id="node41" class="node">
<title>n40</title>
<ellipse   cx="336.9" cy="-378" rx="40.09" ry="18"/>
<text text-anchor="middle" x="336.9" y="-374.3"  font-size="14.00">thiserror</text>
</g>
<!-- n38&#45;&gt;n40 -->
<g id="edge57" class="edge">
<title>n38&#45;&gt;n40</title>
<path   d="M847.78,-447.17C743.55,-443.35 548.24,-431.66 385.9,-396 382.68,-395.29 379.39,-394.45 376.11,-393.51"/>
<polygon   points="376.96,-390.11 366.37,-390.48 374.88,-396.79 376.96,-390.11"/>
</g>
<!-- n39&#45;&gt;n10 -->
<g id="edge58" class="edge">
<title>n39&#45;&gt;n10</title>
<path   d="M884.77,-223.19C862.83,-215.38 837.07,-201.99 823.9,-180 815.67,-166.27 813.01,-155.72 823.9,-144 869.54,-94.87 1342.72,-90.85 1495.57,-90.85"/>
<polygon   points="1495.58,-94.35 1505.58,-90.86 1495.59,-87.35 1495.58,-94.35"/>
</g>
<!-- n74 -->
<g id="node75" class="node">
<title>n74</title>
<ellipse   cx="299.9" cy="-306" rx="59.59" ry="18"/>
<text text-anchor="middle" x="299.9" y="-302.3"  font-size="14.00">thiserror&#45;impl</text>
</g>
<!-- n40&#45;&gt;n74 -->
<g id="edge59" class="edge">
<title>n40&#45;&gt;n74</title>
<path   d="M328.13,-360.41C323.81,-352.25 318.51,-342.22 313.67,-333.07"/>
<polygon   points="316.63,-331.16 308.86,-323.96 310.44,-334.43 316.63,-331.16"/>
</g>
<!-- n41 -->
<g id="node42" class="node">
<title>n41</title>
<ellipse   cx="1764.9" cy="-378" rx="30.59" ry="18"/>
<text text-anchor="middle" x="1764.9" y="-374.3"  font-size="14.00">flate2</text>
</g>
<!-- n41&#45;&gt;n30 -->
<g id="edge104" class="edge">
<title>n41&#45;&gt;n30</title>
<path   d="M1785.63,-364.49C1803.04,-353.98 1828.21,-338.79 1848.31,-326.67"/>
<polygon   points="1850.38,-329.5 1857.14,-321.34 1846.77,-323.51 1850.38,-329.5"/>
</g>
<!-- n42 -->
<g id="node43" class="node">
<title>n42</title>
<ellipse   cx="1764.9" cy="-306" rx="55.49" ry="18"/>
<text text-anchor="middle" x="1764.9" y="-302.3"  font-size="14.00">miniz_oxide</text>
</g>
<!-- n41&#45;&gt;n42 -->
<g id="edge105" class="edge">
<title>n41&#45;&gt;n42</title>
<path   d="M1764.9,-359.7C1764.9,-351.98 1764.9,-342.71 1764.9,-334.11"/>
<polygon   points="1768.4,-334.1 1764.9,-324.1 1761.4,-334.1 1768.4,-334.1"/>
</g>
<!-- n42&#45;&gt;n1 -->
<g id="edge107" class="edge">
<title>n42&#45;&gt;n1</title>
<path   d="M1764.9,-287.7C1764.9,-279.98 1764.9,-270.71 1764.9,-262.11"/>
<polygon   points="1768.4,-262.1 1764.9,-252.1 1761.4,-262.1 1768.4,-262.1"/>
</g>
<!-- n43 -->
<g id="node44" class="node">
<title>n43</title>
<ellipse   cx="1502.9" cy="-522" rx="37.89" ry="18"/>
<text text-anchor="middle" x="1502.9" y="-518.3"  font-size="14.00">fontdue</text>
</g>
<!-- n44 -->
<g id="node45" class="node">
<title>n44</title>
<ellipse   cx="1357.9" cy="-450" rx="78.79" ry="18"/>
<text text-anchor="middle" x="1357.9" y="-446.3"  font-size="14.00">hashbrown v0.11.2</text>
</g>
<!-- n43&#45;&gt;n44 -->
<g id="edge63" class="edge">
<title>n43&#45;&gt;n44</title>
<path   d="M1477.31,-508.65C1455.75,-498.24 1424.5,-483.15 1399.37,-471.02"/>
<polygon   points="1400.6,-467.73 1390.08,-466.54 1397.56,-474.04 1400.6,-467.73"/>
</g>
<!-- n45 -->
<g id="node46" class="node">
<title>n45</title>
<ellipse   cx="1526.9" cy="-450" rx="72.29" ry="18"/>
<text text-anchor="middle" x="1526.9" y="-446.3"  font-size="14.00">ttf&#45;parser v0.15.2</text>
</g>
<!-- n43&#45;&gt;n45 -->
<g id="edge64" class="edge">
<title>n43&#45;&gt;n45</title>
<path   d="M1508.7,-504.05C1511.41,-496.18 1514.68,-486.62 1517.71,-477.79"/>
<polygon   points="1521.04,-478.87 1520.97,-468.28 1514.42,-476.6 1521.04,-478.87"/>
</g>
<!-- n44&#45;&gt;n2 -->
<g id="edge65" class="edge">
<title>n44&#45;&gt;n2</title>
<path   d="M1383.93,-432.71C1426.75,-405.93 1511.71,-352.78 1556.2,-324.95"/>
<polygon   points="1558.17,-327.85 1564.79,-319.58 1554.46,-321.91 1558.17,-327.85"/>
</g>
<!-- n47 -->
<g id="node48" class="node">
<title>n47</title>
<ellipse   cx="1623.9" cy="-522" rx="27" ry="18"/>
<text text-anchor="middle" x="1623.9" y="-518.3"  font-size="14.00">gif</text>
</g>
<!-- n47&#45;&gt;n27 -->
<g id="edge72" class="edge">
<title>n47&#45;&gt;n27</title>
<path   d="M1645.02,-510.49C1649.86,-508.23 1655.01,-505.94 1659.9,-504 1697.4,-489.08 1740.92,-475.01 1773.41,-465.13"/>
<polygon   points="1774.55,-468.44 1783.12,-462.2 1772.53,-461.73 1774.55,-468.44"/>
</g>
<!-- n48 -->
<g id="node49" class="node">
<title>n48</title>
<ellipse   cx="1719.9" cy="-450" rx="31.4" ry="18"/>
<text text-anchor="middle" x="1719.9" y="-446.3"  font-size="14.00">weezl</text>
</g>
<!-- n47&#45;&gt;n48 -->
<g id="edge73" class="edge">
<title>n47&#45;&gt;n48</title>
<path   d="M1641.5,-508.16C1655.88,-497.67 1676.45,-482.68 1692.91,-470.68"/>
<polygon   points="1695.07,-473.43 1701.09,-464.71 1690.94,-467.78 1695.07,-473.43"/>
</g>
<!-- n50 -->
<g id="node51" class="node">
<title>n50</title>
<ellipse   cx="1275.9" cy="-594" rx="46.29" ry="18"/>
<text text-anchor="middle" x="1275.9" y="-590.3"  font-size="14.00">hex_color</text>
</g>
<!-- n51 -->
<g id="node52" class="node">
<title>n51</title>
<ellipse   cx="1233.9" cy="-450" rx="27" ry="18"/>
<text text-anchor="middle" x="1233.9" y="-446.3"  font-size="14.00">rand</text>
</g>
<!-- n50&#45;&gt;n51 -->
<g id="edge43" class="edge">
<title>n50&#45;&gt;n51</title>
<path   d="M1270.83,-575.87C1263.6,-551.43 1250.26,-506.33 1241.75,-477.55"/>
<polygon   points="1245.04,-476.34 1238.85,-467.75 1238.33,-478.33 1245.04,-476.34"/>
</g>
<!-- n51&#45;&gt;n8 -->
<g id="edge44" class="edge">
<title>n51&#45;&gt;n8</title>
<path   d="M1224.44,-432.92C1219,-422.72 1212.71,-409.03 1209.9,-396 1199.77,-349.08 1188.01,-330.72 1209.9,-288 1222.38,-263.63 1237.85,-268.25 1259.9,-252 1292.09,-228.27 1328.82,-200.45 1352.63,-182.31"/>
<polygon   points="1354.96,-184.94 1360.79,-176.09 1350.71,-179.37 1354.96,-184.94"/>
</g>
<!-- n69 -->
<g id="node70" class="node">
<title>n69</title>
<ellipse   cx="1273.9" cy="-378" rx="55.49" ry="18"/>
<text text-anchor="middle" x="1273.9" y="-374.3"  font-size="14.00">rand_chacha</text>
</g>
<!-- n51&#45;&gt;n69 -->
<g id="edge45" class="edge">
<title>n51&#45;&gt;n69</title>
<path   d="M1243.17,-432.76C1247.88,-424.53 1253.71,-414.32 1259.03,-405.02"/>
<polygon   points="1262.19,-406.54 1264.11,-396.12 1256.11,-403.07 1262.19,-406.54"/>
</g>
<!-- n70 -->
<g id="node71" class="node">
<title>n70</title>
<ellipse   cx="1376.9" cy="-306" rx="46.29" ry="18"/>
<text text-anchor="middle" x="1376.9" y="-302.3"  font-size="14.00">rand_core</text>
</g>
<!-- n51&#45;&gt;n70 -->
<g id="edge46" class="edge">
<title>n51&#45;&gt;n70</title>
<path   d="M1255.12,-438.64C1284.62,-424.17 1334.77,-399.32 1337.9,-396 1354.38,-378.52 1364.59,-352.95 1370.41,-333.7"/>
<polygon   points="1373.8,-334.59 1373.13,-324.01 1367.06,-332.69 1373.8,-334.59"/>
</g>
<!-- n52 -->
<g id="node53" class="node">
<title>n52</title>
<polygon   points="1321.9,-684 1229.9,-684 1229.9,-648 1321.9,-648 1321.9,-684"/>
<text text-anchor="middle" x="1275.9" y="-662.3"  font-size="14.00">ipv4&#45;heatmap</text>
</g>
<!-- n52&#45;&gt;n13 -->
<g id="edge1" class="edge">
<title>n52&#45;&gt;n13</title>
<path   d="M1229.66,-664.68C1056.19,-663.17 444.36,-654.86 254.9,-612 251.48,-611.23 248,-610.2 244.56,-609.02"/>
<polygon   points="245.74,-605.72 235.15,-605.42 243.24,-612.26 245.74,-605.72"/>
</g>
<!-- n52&#45;&gt;n14 -->
<g id="edge2" class="edge">
<title>n52&#45;&gt;n14</title>
<path   d="M1256.42,-647.93C1245.48,-637.93 1231.85,-624.79 1220.9,-612 1182.7,-567.43 1189.16,-542.54 1144.9,-504 1124.25,-486.02 1096.43,-472.17 1074.91,-463.15"/>
<polygon   points="1076.09,-459.85 1065.51,-459.35 1073.47,-466.34 1076.09,-459.85"/>
</g>
<!-- n52&#45;&gt;n28 -->
<g id="edge3" class="edge">
<title>n52&#45;&gt;n28</title>
<path   d="M1235.29,-647.88C1206.56,-635.76 1168.58,-619.75 1141.98,-608.53"/>
<polygon   points="1143.3,-605.29 1132.73,-604.63 1140.58,-611.74 1143.3,-605.29"/>
</g>
<!-- n52&#45;&gt;n50 -->
<g id="edge4" class="edge">
<title>n52&#45;&gt;n50</title>
<path   d="M1275.9,-647.7C1275.9,-639.98 1275.9,-630.71 1275.9,-622.11"/>
<polygon   points="1279.4,-622.1 1275.9,-612.1 1272.4,-622.1 1279.4,-622.1"/>
</g>
<!-- n53 -->
<g id="node54" class="node">
<title>n53</title>
<ellipse   cx="1502.9" cy="-594" rx="27" ry="18"/>
<text text-anchor="middle" x="1502.9" y="-590.3"  font-size="14.00">ril</text>
</g>
<!-- n52&#45;&gt;n53 -->
<g id="edge5" class="edge">
<title>n52&#45;&gt;n53</title>
<path   d="M1322.11,-650.75C1365.66,-637.32 1429.9,-617.51 1468.93,-605.48"/>
<polygon   points="1470.23,-608.74 1478.75,-602.45 1468.16,-602.05 1470.23,-608.74"/>
</g>
<!-- n54 -->
<g id="node55" class="node">
<title>n54</title>
<ellipse   cx="1872.9" cy="-594" rx="38.99" ry="18"/>
<text text-anchor="middle" x="1872.9" y="-590.3"  font-size="14.00">rusttype</text>
</g>
<!-- n52&#45;&gt;n54 -->
<g id="edge6" class="edge">
<title>n52&#45;&gt;n54</title>
<path   d="M1322.24,-659.57C1433.29,-646.54 1713.64,-613.67 1825.62,-600.54"/>
<polygon   points="1826.08,-604.01 1835.61,-599.37 1825.27,-597.06 1826.08,-604.01"/>
</g>
<!-- n55 -->
<g id="node56" class="node">
<title>n55</title>
<ellipse   cx="2171.9" cy="-522" rx="29.5" ry="18"/>
<text text-anchor="middle" x="2171.9" y="-518.3"  font-size="14.00">serde</text>
</g>
<!-- n52&#45;&gt;n55 -->
<g id="edge7" class="edge">
<title>n52&#45;&gt;n55</title>
<path   d="M1322.19,-665.04C1428.92,-664.31 1700.02,-657.69 1920.9,-612 2002.05,-595.21 2092.62,-558.3 2139.62,-537.68"/>
<polygon   points="2141.25,-540.78 2148.98,-533.53 2138.41,-534.38 2141.25,-540.78"/>
</g>
<!-- n56 -->
<g id="node57" class="node">
<title>n56</title>
<ellipse   cx="55.9" cy="-306" rx="55.79" ry="18"/>
<text text-anchor="middle" x="55.9" y="-302.3"  font-size="14.00">serde_derive</text>
</g>
<!-- n52&#45;&gt;n56 -->
<g id="edge8" class="edge">
<title>n52&#45;&gt;n56</title>
<path   d="M1229.68,-663.42C1032.15,-656.09 268.9,-621.37 268.9,-523 268.9,-523 268.9,-523 268.9,-449 268.9,-408.21 159.37,-352.9 97.39,-324.87"/>
<polygon   points="98.8,-321.67 88.25,-320.77 95.94,-328.06 98.8,-321.67"/>
</g>
<!-- n57 -->
<g id="node58" class="node">
<title>n57</title>
<ellipse   cx="2208.9" cy="-594" rx="48.19" ry="18"/>
<text text-anchor="middle" x="2208.9" y="-590.3"  font-size="14.00">serde_json</text>
</g>
<!-- n52&#45;&gt;n57 -->
<g id="edge9" class="edge">
<title>n52&#45;&gt;n57</title>
<path   d="M1322,-662.79C1444.04,-656.76 1785.56,-638.65 2068.9,-612 2097.19,-609.34 2128.62,-605.59 2154.51,-602.3"/>
<polygon   points="2155.04,-605.76 2164.51,-601.01 2154.15,-598.82 2155.04,-605.76"/>
</g>
<!-- n53&#45;&gt;n38 -->
<g id="edge50" class="edge">
<title>n53&#45;&gt;n38</title>
<path   d="M1477.74,-586.65C1419.34,-571.93 1269.98,-534.41 1144.9,-504 1090.43,-490.76 1028.4,-476.04 983.61,-465.49"/>
<polygon   points="984.29,-462.05 973.75,-463.16 982.68,-468.86 984.29,-462.05"/>
</g>
<!-- n53&#45;&gt;n43 -->
<g id="edge51" class="edge">
<title>n53&#45;&gt;n43</title>
<path   d="M1502.9,-575.7C1502.9,-567.98 1502.9,-558.71 1502.9,-550.11"/>
<polygon   points="1506.4,-550.1 1502.9,-540.1 1499.4,-550.1 1506.4,-550.1"/>
</g>
<!-- n53&#45;&gt;n47 -->
<g id="edge52" class="edge">
<title>n53&#45;&gt;n47</title>
<path   d="M1522.61,-581.6C1542.38,-570.16 1573.04,-552.42 1595.45,-539.46"/>
<polygon   points="1597.29,-542.43 1604.19,-534.4 1593.78,-536.38 1597.29,-542.43"/>
</g>
<!-- n59 -->
<g id="node60" class="node">
<title>n59</title>
<ellipse   cx="1725.9" cy="-522" rx="56.59" ry="18"/>
<text text-anchor="middle" x="1725.9" y="-518.3"  font-size="14.00">jpeg&#45;decoder</text>
</g>
<!-- n53&#45;&gt;n59 -->
<g id="edge53" class="edge">
<title>n53&#45;&gt;n59</title>
<path   d="M1526.76,-585.51C1562.53,-574.28 1630.81,-552.85 1677.34,-538.24"/>
<polygon   points="1678.42,-541.57 1686.92,-535.24 1676.33,-534.89 1678.42,-541.57"/>
</g>
<!-- n61 -->
<g id="node62" class="node">
<title>n61</title>
<ellipse   cx="1390.9" cy="-522" rx="56.59" ry="18"/>
<text text-anchor="middle" x="1390.9" y="-518.3"  font-size="14.00">jpeg&#45;encoder</text>
</g>
<!-- n53&#45;&gt;n61 -->
<g id="edge54" class="edge">
<title>n53&#45;&gt;n61</title>
<path   d="M1483.9,-581.13C1467.55,-570.91 1443.59,-555.94 1424.09,-543.75"/>
<polygon   points="1425.82,-540.7 1415.48,-538.37 1422.11,-546.64 1425.82,-540.7"/>
</g>
<!-- n65 -->
<g id="node66" class="node">
<title>n65</title>
<ellipse   cx="1643.9" cy="-450" rx="27" ry="18"/>
<text text-anchor="middle" x="1643.9" y="-446.3"  font-size="14.00">png</text>
</g>
<!-- n53&#45;&gt;n65 -->
<g id="edge55" class="edge">
<title>n53&#45;&gt;n65</title>
<path   d="M1516.51,-578.29C1533.12,-560.46 1562.15,-529.63 1587.9,-504 1598.63,-493.31 1610.82,-481.72 1621.07,-472.11"/>
<polygon   points="1623.56,-474.57 1628.48,-465.19 1618.79,-469.46 1623.56,-474.57"/>
</g>
<!-- n54&#45;&gt;n0 -->
<g id="edge108" class="edge">
<title>n54&#45;&gt;n0</title>
<path   d="M1901.13,-581.44C1927.35,-570.71 1966.87,-554.53 1997.69,-541.92"/>
<polygon   points="1999.02,-545.15 2006.95,-538.13 1996.36,-538.68 1999.02,-545.15"/>
</g>
<!-- n63 -->
<g id="node64" class="node">
<title>n63</title>
<ellipse   cx="1872.9" cy="-522" rx="72.29" ry="18"/>
<text text-anchor="middle" x="1872.9" y="-518.3"  font-size="14.00">owned_ttf_parser</text>
</g>
<!-- n54&#45;&gt;n63 -->
<g id="edge109" class="edge">
<title>n54&#45;&gt;n63</title>
<path   d="M1872.9,-575.7C1872.9,-567.98 1872.9,-558.71 1872.9,-550.11"/>
<polygon   points="1876.4,-550.1 1872.9,-540.1 1869.4,-550.1 1876.4,-550.1"/>
</g>
<!-- n56&#45;&gt;n23 -->
<g id="edge111" class="edge">
<title>n56&#45;&gt;n23</title>
<path   d="M65.19,-288.02C76.04,-269.13 95.27,-238.35 116.9,-216 161.4,-170.01 225.61,-131.84 266.29,-110.22"/>
<polygon   points="268.11,-113.21 275.35,-105.47 264.86,-107.01 268.11,-113.21"/>
</g>
<!-- n56&#45;&gt;n24 -->
<g id="edge112" class="edge">
<title>n56&#45;&gt;n24</title>
<path   d="M73.62,-288.92C94.97,-270.03 132.42,-238.43 167.9,-216 191.73,-200.93 220.47,-187.01 242.3,-177.22"/>
<polygon   points="243.77,-180.4 251.5,-173.16 240.94,-174 243.77,-180.4"/>
</g>
<!-- n56&#45;&gt;n25 -->
<g id="edge113" class="edge">
<title>n56&#45;&gt;n25</title>
<path   d="M86.2,-290.67C111.55,-278.68 147.55,-261.65 173.05,-249.59"/>
<polygon   points="174.72,-252.67 182.26,-245.23 171.72,-246.34 174.72,-252.67"/>
</g>
<!-- n57&#45;&gt;n55 -->
<g id="edge121" class="edge">
<title>n57&#45;&gt;n55</title>
<path   d="M2199.94,-576.05C2195.56,-567.77 2190.19,-557.62 2185.33,-548.42"/>
<polygon   points="2188.28,-546.51 2180.51,-539.31 2182.09,-549.78 2188.28,-546.51"/>
</g>
<!-- n58 -->
<g id="node59" class="node">
<title>n58</title>
<ellipse   cx="2317.9" cy="-522" rx="27" ry="18"/>
<text text-anchor="middle" x="2317.9" y="-518.3"  font-size="14.00">itoa</text>
</g>
<!-- n57&#45;&gt;n58 -->
<g id="edge119" class="edge">
<title>n57&#45;&gt;n58</title>
<path   d="M2232.01,-578.15C2249.04,-567.22 2272.27,-552.3 2290.28,-540.74"/>
<polygon   points="2292.63,-543.38 2299.16,-535.03 2288.85,-537.49 2292.63,-543.38"/>
</g>
<!-- n72 -->
<g id="node73" class="node">
<title>n72</title>
<ellipse   cx="2245.9" cy="-522" rx="27" ry="18"/>
<text text-anchor="middle" x="2245.9" y="-518.3"  font-size="14.00">ryu</text>
</g>
<!-- n57&#45;&gt;n72 -->
<g id="edge120" class="edge">
<title>n57&#45;&gt;n72</title>
<path   d="M2217.85,-576.05C2222.23,-567.77 2227.6,-557.62 2232.46,-548.42"/>
<polygon   points="2235.7,-549.78 2237.28,-539.31 2229.51,-546.51 2235.7,-549.78"/>
</g>
<!-- n60 -->
<g id="node61" class="node">
<title>n60</title>
<ellipse   cx="1922.9" cy="-450" rx="30.59" ry="18"/>
<text text-anchor="middle" x="1922.9" y="-446.3"  font-size="14.00">rayon</text>
</g>
<!-- n59&#45;&gt;n60 -->
<g id="edge74" class="edge">
<title>n59&#45;&gt;n60</title>
<path   d="M1765.19,-508.87C1797.37,-498.69 1843.93,-483.38 1883.9,-468 1885.76,-467.28 1887.66,-466.53 1889.57,-465.75"/>
<polygon   points="1891.23,-468.85 1899.11,-461.76 1888.53,-462.4 1891.23,-468.85"/>
</g>
<!-- n60&#45;&gt;n10 -->
<g id="edge75" class="edge">
<title>n60&#45;&gt;n10</title>
<path   d="M1899.66,-438.02C1894.54,-435.84 1889.09,-433.7 1883.9,-432 1815.05,-409.42 1785.64,-435.49 1724.9,-396 1674.7,-363.37 1589.18,-234.26 1563.9,-180 1554.7,-160.27 1549.33,-136.15 1546.33,-118"/>
<polygon   points="1549.78,-117.44 1544.82,-108.08 1542.86,-118.49 1549.78,-117.44"/>
</g>
<!-- n60&#45;&gt;n33 -->
<g id="edge76" class="edge">
<title>n60&#45;&gt;n33</title>
<path   d="M1946.73,-438.35C1951.72,-436.19 1956.96,-433.98 1961.9,-432 2004.96,-414.72 2029.49,-431.05 2059.9,-396 2074.57,-379.08 2078.82,-353.61 2079.69,-334.25"/>
<polygon   points="2083.19,-334.27 2079.87,-324.21 2076.19,-334.15 2083.19,-334.27"/>
</g>
<!-- n60&#45;&gt;n37 -->
<g id="edge77" class="edge">
<title>n60&#45;&gt;n37</title>
<path   d="M1941.6,-435.5C1956.22,-424.95 1976.75,-410.13 1993.12,-398.32"/>
<polygon   points="1995.19,-401.15 2001.25,-392.46 1991.09,-395.47 1995.19,-401.15"/>
</g>
<!-- n71 -->
<g id="node72" class="node">
<title>n71</title>
<ellipse   cx="1922.9" cy="-378" rx="48.99" ry="18"/>
<text text-anchor="middle" x="1922.9" y="-374.3"  font-size="14.00">rayon&#45;core</text>
</g>
<!-- n60&#45;&gt;n71 -->
<g id="edge78" class="edge">
<title>n60&#45;&gt;n71</title>
<path   d="M1922.9,-431.7C1922.9,-423.98 1922.9,-414.71 1922.9,-406.11"/>
<polygon   points="1926.4,-406.1 1922.9,-396.1 1919.4,-406.1 1926.4,-406.1"/>
</g>
<!-- n62 -->
<g id="node63" class="node">
<title>n62</title>
<ellipse   cx="1488.9" cy="-306" rx="47.39" ry="18"/>
<text text-anchor="middle" x="1488.9" y="-302.3"  font-size="14.00">num_cpus</text>
</g>
<!-- n62&#45;&gt;n7 -->
<g id="edge97" class="edge">
<title>n62&#45;&gt;n7</title>
<path   d="M1453.44,-293.96C1446.33,-291.88 1438.9,-289.8 1431.9,-288 1358.35,-269.14 1338.65,-270.05 1264.9,-252 1260.01,-250.8 1254.92,-249.5 1249.85,-248.17"/>
<polygon   points="1250.75,-244.79 1240.18,-245.58 1248.94,-251.55 1250.75,-244.79"/>
</g>
<!-- n62&#45;&gt;n8 -->
<g id="edge98" class="edge">
<title>n62&#45;&gt;n8</title>
<path   d="M1455.56,-293C1427.18,-282.05 1389.66,-265.55 1380.9,-252 1369.12,-233.79 1369.35,-208.82 1371.96,-189.96"/>
<polygon   points="1375.44,-190.37 1373.65,-179.93 1368.54,-189.21 1375.44,-190.37"/>
</g>
<!-- n64 -->
<g id="node65" class="node">
<title>n64</title>
<ellipse   cx="2038.9" cy="-450" rx="67.69" ry="18"/>
<text text-anchor="middle" x="2038.9" y="-446.3"  font-size="14.00">ttf&#45;parser v0.6.2</text>
</g>
<!-- n63&#45;&gt;n64 -->
<g id="edge110" class="edge">
<title>n63&#45;&gt;n64</title>
<path   d="M1908.1,-506.15C1933.47,-495.46 1967.88,-480.95 1995.03,-469.5"/>
<polygon   points="1996.46,-472.69 2004.31,-465.58 1993.74,-466.24 1996.46,-472.69"/>
</g>
<!-- n65&#45;&gt;n11 -->
<g id="edge100" class="edge">
<title>n65&#45;&gt;n11</title>
<path   d="M1630.11,-434.15C1621.56,-424.94 1610.38,-412.91 1600.65,-402.43"/>
<polygon   points="1602.93,-399.74 1593.56,-394.8 1597.8,-404.51 1602.93,-399.74"/>
</g>
<!-- n65&#45;&gt;n30 -->
<g id="edge101" class="edge">
<title>n65&#45;&gt;n30</title>
<path   d="M1664.97,-438.36C1669.81,-436.11 1674.98,-433.85 1679.9,-432 1733.99,-411.59 1756.29,-427.31 1804.9,-396 1830.34,-379.61 1851.9,-352.16 1865.49,-332.07"/>
<polygon   points="1868.43,-333.98 1870.98,-323.7 1862.57,-330.14 1868.43,-333.98"/>
</g>
<!-- n65&#45;&gt;n41 -->
<g id="edge102" class="edge">
<title>n65&#45;&gt;n41</title>
<path   d="M1663.61,-437.6C1682.91,-426.43 1712.59,-409.26 1734.84,-396.39"/>
<polygon   points="1736.66,-399.38 1743.56,-391.34 1733.15,-393.32 1736.66,-399.38"/>
</g>
<!-- n65&#45;&gt;n42 -->
<g id="edge103" class="edge">
<title>n65&#45;&gt;n42</title>
<path   d="M1656.62,-434.07C1677.47,-409.6 1719.12,-360.72 1744.24,-331.23"/>
<polygon   points="1747.04,-333.35 1750.86,-323.47 1741.71,-328.81 1747.04,-333.35"/>
</g>
<!-- n66 -->
<g id="node67" class="node">
<title>n66</title>
<ellipse   cx="1265.9" cy="-306" rx="46.59" ry="18"/>
<text text-anchor="middle" x="1265.9" y="-302.3"  font-size="14.00">ppv&#45;lite86</text>
</g>
<!-- n67&#45;&gt;n5 -->
<g id="edge34" class="edge">
<title>n67&#45;&gt;n5</title>
<path   d="M501.9,-216.05C509.52,-207.46 518.91,-196.86 527.29,-187.4"/>
<polygon   points="530.01,-189.6 534.02,-179.79 524.77,-184.95 530.01,-189.6"/>
</g>
<!-- n67&#45;&gt;n23 -->
<g id="edge32" class="edge">
<title>n67&#45;&gt;n23</title>
<path   d="M465.66,-216.43C432.93,-190.9 370.12,-141.89 333.45,-113.28"/>
<polygon   points="335.2,-110.2 325.16,-106.81 330.89,-115.72 335.2,-110.2"/>
</g>
<!-- n67&#45;&gt;n24 -->
<g id="edge33" class="edge">
<title>n67&#45;&gt;n24</title>
<path   d="M442.92,-218.41C403.95,-205.48 347.76,-186.84 311.54,-174.82"/>
<polygon   points="312.47,-171.45 301.88,-171.62 310.27,-178.09 312.47,-171.45"/>
</g>
<!-- n69&#45;&gt;n66 -->
<g id="edge47" class="edge">
<title>n69&#45;&gt;n66</title>
<path   d="M1271.92,-359.7C1271.04,-351.98 1269.98,-342.71 1268.99,-334.11"/>
<polygon   points="1272.46,-333.64 1267.85,-324.1 1265.51,-334.44 1272.46,-333.64"/>
</g>
<!-- n69&#45;&gt;n70 -->
<g id="edge48" class="edge">
<title>n69&#45;&gt;n70</title>
<path   d="M1296.75,-361.46C1311.36,-351.54 1330.46,-338.56 1346.36,-327.75"/>
<polygon   points="1348.5,-330.53 1354.81,-322.01 1344.57,-324.74 1348.5,-330.53"/>
</g>
<!-- n70&#45;&gt;n3 -->
<g id="edge49" class="edge">
<title>n70&#45;&gt;n3</title>
<path   d="M1391.27,-288.76C1399.07,-279.97 1408.84,-268.93 1417.51,-259.14"/>
<polygon   points="1420.15,-261.44 1424.16,-251.63 1414.91,-256.8 1420.15,-261.44"/>
</g>
<!-- n71&#45;&gt;n31 -->
<g id="edge79" class="edge">
<title>n71&#45;&gt;n31</title>
<path   d="M1958.94,-365.7C1965.86,-363.69 1973.08,-361.69 1979.9,-360 2059.07,-340.32 2101.83,-381.31 2159.9,-324 2175.93,-308.17 2180,-282.36 2180.45,-262.6"/>
<polygon   points="2183.95,-262.33 2180.39,-252.35 2176.95,-262.37 2183.95,-262.33"/>
</g>
<!-- n71&#45;&gt;n32 -->
<g id="edge81" class="edge">
<title>n71&#45;&gt;n32</title>
<path   d="M1936.57,-360.56C1967.62,-323.23 2043.6,-231.88 2080.34,-187.71"/>
<polygon   points="2083.23,-189.71 2086.93,-179.79 2077.85,-185.24 2083.23,-189.71"/>
</g>
<!-- n71&#45;&gt;n33 -->
<g id="edge80" class="edge">
<title>n71&#45;&gt;n33</title>
<path   d="M1952.6,-363.67C1976.22,-353.07 2009.58,-338.1 2036.09,-326.21"/>
<polygon   points="2037.82,-329.27 2045.51,-321.98 2034.95,-322.88 2037.82,-329.27"/>
</g>
<!-- n71&#45;&gt;n62 -->
<g id="edge82" class="edge">
<title>n71&#45;&gt;n62</title>
<path   d="M1878.36,-370.52C1856.27,-367.33 1829.18,-363.43 1804.9,-360 1689.38,-343.68 1658.84,-349.02 1544.9,-324 1541.1,-323.17 1537.18,-322.2 1533.27,-321.16"/>
<polygon   points="1534.2,-317.79 1523.62,-318.47 1532.31,-324.53 1534.2,-317.79"/>
</g>
<!-- n73&#45;&gt;n9 -->
<g id="edge39" class="edge">
<title>n73&#45;&gt;n9</title>
<path   d="M1043.63,-287.7C1044.4,-279.98 1045.32,-270.71 1046.18,-262.11"/>
<polygon   points="1049.67,-262.4 1047.18,-252.1 1042.71,-261.71 1049.67,-262.4"/>
</g>
<!-- n74&#45;&gt;n23 -->
<g id="edge60" class="edge">
<title>n74&#45;&gt;n23</title>
<path   d="M303.92,-287.6C310.25,-258.07 321.26,-196.25 315.9,-144 315.02,-135.46 313.36,-126.26 311.6,-117.96"/>
<polygon   points="314.98,-117.03 309.36,-108.05 308.15,-118.57 314.98,-117.03"/>
</g>
<!-- n74&#45;&gt;n24 -->
<g id="edge61" class="edge">
<title>n74&#45;&gt;n24</title>
<path   d="M293.36,-288.08C289.67,-277.8 285.32,-264.33 282.9,-252 278.88,-231.6 277.15,-208.14 276.41,-190.43"/>
<polygon   points="279.9,-190.1 276.07,-180.22 272.91,-190.33 279.9,-190.1"/>
</g>
<!-- n74&#45;&gt;n25 -->
<g id="edge62" class="edge">
<title>n74&#45;&gt;n25</title>
<path   d="M278.11,-289.12C263.78,-278.66 244.94,-264.93 229.83,-253.91"/>
<polygon   points="231.57,-250.85 221.43,-247.78 227.45,-256.5 231.57,-250.85"/>
</g>
</g>
</svg>
