<svg width="3127pt" height="764pt"
 viewBox="0.00 0.00 3126.90 764.00" xmlns="http://www.w3.org/2000/svg" xmlns:xlink="http://www.w3.org/1999/xlink">
<defs>
<style>
svg {
  color: black;
  background-color: white;
}

g.graph>polygon {
  fill: white;
  stroke: none
}

text {
  stroke: none;
  fill: black;
  font-family: sans-serif;
}

g.node>ellipse {
  fill: none;
  stroke: black;
}

g.edge>path {
  fill: none;
  stroke: black;
}

g.edge>polygon {
  fill: black;
  stroke: white;
}

@media (prefers-color-scheme: dark) {
  svg {
    color: white;
    background-color: black;
  }

  g.graph>polygon {
    fill: black;
    stroke: none
  }

  text {
    stroke: none;
    fill: white;
  }

  g.node>ellipse {
    fill: none;
    stroke: white;
  }

  g.edge>path {
    fill: none;
    stroke: white;
  }

  g.edge>polygon {
    fill: white;
    stroke: white;
  }
}
</style>
</defs>
<g id="graph0" class="graph" transform="scale(1 1) rotate(0) translate(4 760)">
<title>dependencies</title>
<polygon   points="-4,4 -4,-760 3122.9,-760 3122.9,4 -4,4"/>
<!-- n0 -->
<g id="node1" class="node">
<title>n0</title>
<ellipse   cx="1907.9" cy="-594" rx="80.69" ry="18"/>
<text text-anchor="middle" x="1907.9" y="-590.3"  font-size="14.00">ab_glyph_rasterizer</text>
</g>
<!-- n1 -->
<g id="node2" class="node">
<title>n1</title>
<ellipse   cx="158.9" cy="-234" rx="28.7" ry="18"/>
<text text-anchor="middle" x="158.9" y="-230.3"  font-size="14.00">adler</text>
</g>
<!-- n2 -->
<g id="node3" class="node">
<title>n2</title>
<ellipse   cx="1214.9" cy="-234" rx="30.59" ry="18"/>
<text text-anchor="middle" x="1214.9" y="-230.3"  font-size="14.00">ahash</text>
</g>
<!-- n3 -->
<g id="node4" class="node">
<title>n3</title>
<ellipse   cx="1232.9" cy="-90" rx="48.99" ry="18"/>
<text text-anchor="middle" x="1232.9" y="-86.3"  font-size="14.00">getrandom</text>
</g>
<!-- n2&#45;&gt;n3 -->
<g id="edge80" class="edge">
<title>n2&#45;&gt;n3</title>
<path   d="M1212.47,-215.78C1210.4,-197.73 1208.4,-168.63 1212.9,-144 1214.5,-135.2 1217.49,-125.95 1220.68,-117.7"/>
<polygon   points="1224.02,-118.79 1224.59,-108.21 1217.54,-116.12 1224.02,-118.79"/>
</g>
<!-- n4 -->
<g id="node5" class="node">
<title>n4</title>
<ellipse   cx="468.9" cy="-18" rx="44.39" ry="18"/>
<text text-anchor="middle" x="468.9" y="-14.3"  font-size="14.00">once_cell</text>
</g>
<!-- n2&#45;&gt;n4 -->
<g id="edge81" class="edge">
<title>n2&#45;&gt;n4</title>
<path   d="M1200.81,-217.99C1180.48,-197.41 1140.75,-161.03 1098.9,-144 973.7,-93.04 926.79,-145.42 796.9,-108 760.98,-97.65 756.32,-83.93 720.9,-72 653.17,-49.19 571.77,-34.2 520.18,-26.16"/>
<polygon   points="520.69,-22.7 510.27,-24.65 519.63,-29.62 520.69,-22.7"/>
</g>
<!-- n5 -->
<g id="node6" class="node">
<title>n5</title>
<ellipse   cx="2099.9" cy="-162" rx="61.99" ry="18"/>
<text text-anchor="middle" x="2099.9" y="-158.3"  font-size="14.00">version_check</text>
</g>
<!-- n2&#45;&gt;n5 -->
<g id="edge82" class="edge">
<title>n2&#45;&gt;n5</title>
<path   d="M1242.88,-226.59C1260.1,-222.9 1282.67,-218.5 1302.9,-216 1590.04,-180.48 1664.61,-204.63 1952.9,-180 1979.79,-177.7 2009.36,-174.43 2034.89,-171.36"/>
<polygon   points="2035.32,-174.84 2044.83,-170.16 2034.48,-167.89 2035.32,-174.84"/>
</g>
<!-- n8 -->
<g id="node9" class="node">
<title>n8</title>
<ellipse   cx="1155.9" cy="-18" rx="27" ry="18"/>
<text text-anchor="middle" x="1155.9" y="-14.3"  font-size="14.00">libc</text>
</g>
<!-- n3&#45;&gt;n8 -->
<g id="edge84" class="edge">
<title>n3&#45;&gt;n8</title>
<path   d="M1215.42,-73.12C1204.61,-63.28 1190.6,-50.55 1178.89,-39.9"/>
<polygon   points="1180.97,-37.06 1171.22,-32.93 1176.26,-42.24 1180.97,-37.06"/>
</g>
<!-- n12 -->
<g id="node13" class="node">
<title>n12</title>
<ellipse   cx="210.9" cy="-18" rx="30.59" ry="18"/>
<text text-anchor="middle" x="210.9" y="-14.3"  font-size="14.00">cfg&#45;if</text>
</g>
<!-- n3&#45;&gt;n12 -->
<g id="edge83" class="edge">
<title>n3&#45;&gt;n12</title>
<path   d="M1184.99,-86.19C1058.99,-78.75 707.91,-57.58 415.9,-36 358.72,-31.78 292.65,-26.16 251.31,-22.57"/>
<polygon   points="251.37,-19.06 241.1,-21.68 250.76,-26.03 251.37,-19.06"/>
</g>
<!-- n49 -->
<g id="node50" class="node">
<title>n49</title>
<ellipse   cx="1232.9" cy="-18" rx="27" ry="18"/>
<text text-anchor="middle" x="1232.9" y="-14.3"  font-size="14.00">wasi</text>
</g>
<!-- n3&#45;&gt;n49 -->
<g id="edge85" class="edge">
<title>n3&#45;&gt;n49</title>
<path   d="M1232.9,-71.7C1232.9,-63.98 1232.9,-54.71 1232.9,-46.11"/>
<polygon   points="1236.4,-46.1 1232.9,-36.1 1229.4,-46.1 1236.4,-46.1"/>
</g>
<!-- n6 -->
<g id="node7" class="node">
<title>n6</title>
<ellipse   cx="1260.9" cy="-306" rx="27" ry="18"/>
<text text-anchor="middle" x="1260.9" y="-302.3"  font-size="14.00">atty</text>
</g>
<!-- n7 -->
<g id="node8" class="node">
<title>n7</title>
<ellipse   cx="1041.9" cy="-162" rx="48.19" ry="18"/>
<text text-anchor="middle" x="1041.9" y="-158.3"  font-size="14.00">hermit&#45;abi</text>
</g>
<!-- n6&#45;&gt;n7 -->
<g id="edge21" class="edge">
<title>n6&#45;&gt;n7</title>
<path   d="M1239.63,-294.82C1234.8,-292.55 1229.68,-290.17 1224.9,-288 1188.27,-271.41 1175.79,-273.64 1141.9,-252 1112.5,-233.23 1083.2,-205.88 1063.99,-186.46"/>
<polygon   points="1066.38,-183.9 1056.9,-179.18 1061.37,-188.79 1066.38,-183.9"/>
</g>
<!-- n6&#45;&gt;n8 -->
<g id="edge22" class="edge">
<title>n6&#45;&gt;n8</title>
<path   d="M1239.72,-294.76C1216.82,-283.24 1182.55,-264.49 1174.9,-252 1135.13,-187.13 1143.42,-92.32 1150.7,-46.21"/>
<polygon   points="1154.2,-46.54 1152.41,-36.09 1147.29,-45.37 1154.2,-46.54"/>
</g>
<!-- n9 -->
<g id="node10" class="node">
<title>n9</title>
<ellipse   cx="1345.9" cy="-234" rx="34.39" ry="18"/>
<text text-anchor="middle" x="1345.9" y="-230.3"  font-size="14.00">winapi</text>
</g>
<!-- n6&#45;&gt;n9 -->
<g id="edge23" class="edge">
<title>n6&#45;&gt;n9</title>
<path   d="M1277.29,-291.5C1289.46,-281.47 1306.31,-267.6 1320.27,-256.11"/>
<polygon   points="1322.6,-258.72 1328.09,-249.66 1318.15,-253.32 1322.6,-258.72"/>
</g>
<!-- n7&#45;&gt;n8 -->
<g id="edge113" class="edge">
<title>n7&#45;&gt;n8</title>
<path   d="M1055.2,-144.43C1075.51,-119.13 1114.33,-70.78 1137.38,-42.06"/>
<polygon   points="1140.19,-44.16 1143.72,-34.17 1134.73,-39.78 1140.19,-44.16"/>
</g>
<!-- n83 -->
<g id="node84" class="node">
<title>n83</title>
<ellipse   cx="1336.9" cy="-162" rx="115.08" ry="18"/>
<text text-anchor="middle" x="1336.9" y="-158.3"  font-size="14.00">winapi&#45;i686&#45;pc&#45;windows&#45;gnu</text>
</g>
<!-- n9&#45;&gt;n83 -->
<g id="edge42" class="edge">
<title>n9&#45;&gt;n83</title>
<path   d="M1343.67,-215.7C1342.68,-207.98 1341.49,-198.71 1340.38,-190.11"/>
<polygon   points="1343.84,-189.58 1339.1,-180.1 1336.9,-190.47 1343.84,-189.58"/>
</g>
<!-- n84 -->
<g id="node85" class="node">
<title>n84</title>
<ellipse   cx="1595.9" cy="-162" rx="126.18" ry="18"/>
<text text-anchor="middle" x="1595.9" y="-158.3"  font-size="14.00">winapi&#45;x86_64&#45;pc&#45;windows&#45;gnu</text>
</g>
<!-- n9&#45;&gt;n84 -->
<g id="edge43" class="edge">
<title>n9&#45;&gt;n84</title>
<path   d="M1375.56,-224.7C1413.75,-214 1481.19,-195.12 1531.43,-181.05"/>
<polygon   points="1532.55,-184.37 1541.23,-178.31 1530.66,-177.63 1532.55,-184.37"/>
</g>
<!-- n10 -->
<g id="node11" class="node">
<title>n10</title>
<ellipse   cx="739.9" cy="-18" rx="37.09" ry="18"/>
<text text-anchor="middle" x="739.9" y="-14.3"  font-size="14.00">autocfg</text>
</g>
<!-- n11 -->
<g id="node12" class="node">
<title>n11</title>
<ellipse   cx="228.9" cy="-378" rx="37.09" ry="18"/>
<text text-anchor="middle" x="228.9" y="-374.3"  font-size="14.00">bitflags</text>
</g>
<!-- n13 -->
<g id="node14" class="node">
<title>n13</title>
<ellipse   cx="2380.9" cy="-666" rx="27" ry="18"/>
<text text-anchor="middle" x="2380.9" y="-662.3"  font-size="14.00">cidr</text>
</g>
<!-- n14 -->
<g id="node15" class="node">
<title>n14</title>
<ellipse   cx="1333.9" cy="-450" rx="27" ry="18"/>
<text text-anchor="middle" x="1333.9" y="-446.3"  font-size="14.00">clap</text>
</g>
<!-- n14&#45;&gt;n4 -->
<g id="edge17" class="edge">
<title>n14&#45;&gt;n4</title>
<path   d="M1306.77,-448.71C1216.83,-447.33 929.65,-439.55 849.9,-396 805.24,-371.61 777.9,-357.88 777.9,-307 777.9,-307 777.9,-307 777.9,-233 777.9,-224.6 577.7,-91.07 499.59,-39.3"/>
<polygon   points="501.39,-36.29 491.12,-33.69 497.52,-42.13 501.39,-36.29"/>
</g>
<!-- n14&#45;&gt;n6 -->
<g id="edge12" class="edge">
<title>n14&#45;&gt;n6</title>
<path   d="M1316.14,-436.14C1304.07,-426.46 1288.75,-412.12 1279.9,-396 1269.4,-376.9 1264.7,-352.55 1262.59,-334.14"/>
<polygon   points="1266.07,-333.7 1261.63,-324.08 1259.1,-334.37 1266.07,-333.7"/>
</g>
<!-- n14&#45;&gt;n11 -->
<g id="edge13" class="edge">
<title>n14&#45;&gt;n11</title>
<path   d="M1307.06,-447.89C1147.33,-441.24 326.97,-406.66 274.9,-396 271.73,-395.35 268.48,-394.52 265.26,-393.58"/>
<polygon   points="266.33,-390.24 255.74,-390.47 264.16,-396.9 266.33,-390.24"/>
</g>
<!-- n15 -->
<g id="node16" class="node">
<title>n15</title>
<ellipse   cx="2144.9" cy="-378" rx="51.99" ry="18"/>
<text text-anchor="middle" x="2144.9" y="-374.3"  font-size="14.00">clap_derive</text>
</g>
<!-- n14&#45;&gt;n15 -->
<g id="edge14" class="edge">
<title>n14&#45;&gt;n15</title>
<path   d="M1353.96,-437.92C1359.02,-435.58 1364.55,-433.39 1369.9,-432 1504.31,-397 1924.14,-384.01 2083.08,-380.27"/>
<polygon   points="2083.25,-383.77 2093.17,-380.04 2083.09,-376.77 2083.25,-383.77"/>
</g>
<!-- n16 -->
<g id="node17" class="node">
<title>n16</title>
<ellipse   cx="1437.9" cy="-378" rx="40.09" ry="18"/>
<text text-anchor="middle" x="1437.9" y="-374.3"  font-size="14.00">clap_lex</text>
</g>
<!-- n14&#45;&gt;n16 -->
<g id="edge15" class="edge">
<title>n14&#45;&gt;n16</title>
<path   d="M1352.49,-436.49C1367.95,-426.08 1390.25,-411.07 1408.19,-398.99"/>
<polygon   points="1410.25,-401.82 1416.6,-393.34 1406.35,-396.02 1410.25,-401.82"/>
</g>
<!-- n17 -->
<g id="node18" class="node">
<title>n17</title>
<ellipse   cx="1136.9" cy="-378" rx="46.29" ry="18"/>
<text text-anchor="middle" x="1136.9" y="-374.3"  font-size="14.00">indexmap</text>
</g>
<!-- n14&#45;&gt;n17 -->
<g id="edge16" class="edge">
<title>n14&#45;&gt;n17</title>
<path   d="M1310.52,-440.7C1278.23,-429.22 1219.4,-408.32 1179.26,-394.05"/>
<polygon   points="1180.33,-390.72 1169.73,-390.67 1177.98,-397.31 1180.33,-390.72"/>
</g>
<!-- n18 -->
<g id="node19" class="node">
<title>n18</title>
<ellipse   cx="1528.9" cy="-378" rx="32.49" ry="18"/>
<text text-anchor="middle" x="1528.9" y="-374.3"  font-size="14.00">strsim</text>
</g>
<!-- n14&#45;&gt;n18 -->
<g id="edge18" class="edge">
<title>n14&#45;&gt;n18</title>
<path   d="M1355,-438.42C1359.84,-436.17 1365,-433.9 1369.9,-432 1420.62,-412.33 1435.63,-414.22 1486.9,-396 1489.3,-395.15 1491.76,-394.24 1494.23,-393.3"/>
<polygon   points="1495.67,-396.5 1503.71,-389.6 1493.12,-389.98 1495.67,-396.5"/>
</g>
<!-- n19 -->
<g id="node20" class="node">
<title>n19</title>
<ellipse   cx="1333.9" cy="-378" rx="45.49" ry="18"/>
<text text-anchor="middle" x="1333.9" y="-374.3"  font-size="14.00">termcolor</text>
</g>
<!-- n14&#45;&gt;n19 -->
<g id="edge19" class="edge">
<title>n14&#45;&gt;n19</title>
<path   d="M1333.9,-431.7C1333.9,-423.98 1333.9,-414.71 1333.9,-406.11"/>
<polygon   points="1337.4,-406.1 1333.9,-396.1 1330.4,-406.1 1337.4,-406.1"/>
</g>
<!-- n20 -->
<g id="node21" class="node">
<title>n20</title>
<ellipse   cx="1620.9" cy="-378" rx="41.69" ry="18"/>
<text text-anchor="middle" x="1620.9" y="-374.3"  font-size="14.00">textwrap</text>
</g>
<!-- n14&#45;&gt;n20 -->
<g id="edge20" class="edge">
<title>n14&#45;&gt;n20</title>
<path   d="M1354.46,-438.16C1359.41,-435.86 1364.76,-433.64 1369.9,-432 1455.92,-404.48 1482.38,-418.34 1569.9,-396 1573.25,-395.14 1576.71,-394.18 1580.17,-393.15"/>
<polygon   points="1581.31,-396.46 1589.82,-390.15 1579.23,-389.78 1581.31,-396.46"/>
</g>
<!-- n21 -->
<g id="node22" class="node">
<title>n21</title>
<ellipse   cx="2064.9" cy="-306" rx="27.1" ry="18"/>
<text text-anchor="middle" x="2064.9" y="-302.3"  font-size="14.00">heck</text>
</g>
<!-- n15&#45;&gt;n21 -->
<g id="edge24" class="edge">
<title>n15&#45;&gt;n21</title>
<path   d="M2126.74,-361.12C2115.4,-351.19 2100.67,-338.3 2088.43,-327.6"/>
<polygon   points="2090.64,-324.88 2080.81,-320.93 2086.03,-330.15 2090.64,-324.88"/>
</g>
<!-- n22 -->
<g id="node23" class="node">
<title>n22</title>
<ellipse   cx="2181.9" cy="-306" rx="71.49" ry="18"/>
<text text-anchor="middle" x="2181.9" y="-302.3"  font-size="14.00">proc&#45;macro&#45;error</text>
</g>
<!-- n15&#45;&gt;n22 -->
<g id="edge25" class="edge">
<title>n15&#45;&gt;n22</title>
<path   d="M2153.85,-360.05C2158.11,-352.01 2163.29,-342.2 2168.03,-333.23"/>
<polygon   points="2171.19,-334.75 2172.76,-324.28 2165,-331.48 2171.19,-334.75"/>
</g>
<!-- n23 -->
<g id="node24" class="node">
<title>n23</title>
<ellipse   cx="2427.9" cy="-90" rx="55.79" ry="18"/>
<text text-anchor="middle" x="2427.9" y="-86.3"  font-size="14.00">proc&#45;macro2</text>
</g>
<!-- n15&#45;&gt;n23 -->
<g id="edge26" class="edge">
<title>n15&#45;&gt;n23</title>
<path   d="M2099.86,-368.8C2074.35,-361.61 2044.52,-348.31 2028.9,-324 1985.65,-256.7 1976.18,-204.18 2028.9,-144 2050.56,-119.27 2255.97,-102.26 2363.28,-94.98"/>
<polygon   points="2363.61,-98.47 2373.35,-94.31 2363.14,-91.48 2363.61,-98.47"/>
</g>
<!-- n24 -->
<g id="node25" class="node">
<title>n24</title>
<ellipse   cx="2427.9" cy="-162" rx="30.59" ry="18"/>
<text text-anchor="middle" x="2427.9" y="-158.3"  font-size="14.00">quote</text>
</g>
<!-- n15&#45;&gt;n24 -->
<g id="edge27" class="edge">
<title>n15&#45;&gt;n24</title>
<path   d="M2180.02,-364.64C2204.12,-355.33 2236.26,-341.23 2261.9,-324 2262.05,-323.9 2337.77,-252.13 2337.9,-252 2361.25,-229.4 2387.65,-203.21 2405.79,-185.12"/>
<polygon   points="2408.42,-187.44 2413.02,-177.9 2403.47,-182.49 2408.42,-187.44"/>
</g>
<!-- n25 -->
<g id="node26" class="node">
<title>n25</title>
<ellipse   cx="2520.9" cy="-234" rx="27" ry="18"/>
<text text-anchor="middle" x="2520.9" y="-230.3"  font-size="14.00">syn</text>
</g>
<!-- n15&#45;&gt;n25 -->
<g id="edge28" class="edge">
<title>n15&#45;&gt;n25</title>
<path   d="M2192.04,-370.14C2269.34,-358.64 2416.63,-335.61 2437.9,-324 2466.29,-308.5 2490.42,-279.7 2505.22,-259.06"/>
<polygon   points="2508.14,-260.98 2510.97,-250.77 2502.39,-256.99 2508.14,-260.98"/>
</g>
<!-- n26 -->
<g id="node27" class="node">
<title>n26</title>
<ellipse   cx="1476.9" cy="-306" rx="54.69" ry="18"/>
<text text-anchor="middle" x="1476.9" y="-302.3"  font-size="14.00">os_str_bytes</text>
</g>
<!-- n16&#45;&gt;n26 -->
<g id="edge37" class="edge">
<title>n16&#45;&gt;n26</title>
<path   d="M1447.14,-360.41C1451.73,-352.16 1457.39,-342.01 1462.53,-332.78"/>
<polygon   points="1465.64,-334.4 1467.45,-323.96 1459.52,-330.99 1465.64,-334.4"/>
</g>
<!-- n17&#45;&gt;n10 -->
<g id="edge38" class="edge">
<title>n17&#45;&gt;n10</title>
<path   d="M1110.53,-363.1C1092.53,-353.14 1068.49,-338.9 1048.9,-324 1030.38,-309.92 1029.62,-301.81 1010.9,-288 984.63,-268.63 966.21,-278.31 946.9,-252 898.51,-186.09 963.88,-132.52 908.9,-72 878,-37.99 825.58,-25.62 787.3,-21.22"/>
<polygon   points="787.2,-17.7 776.9,-20.18 786.5,-24.66 787.2,-17.7"/>
</g>
<!-- n52 -->
<g id="node53" class="node">
<title>n52</title>
<ellipse   cx="1136.9" cy="-306" rx="78.79" ry="18"/>
<text text-anchor="middle" x="1136.9" y="-302.3"  font-size="14.00">hashbrown v0.12.3</text>
</g>
<!-- n17&#45;&gt;n52 -->
<g id="edge39" class="edge">
<title>n17&#45;&gt;n52</title>
<path   d="M1136.9,-359.7C1136.9,-351.98 1136.9,-342.71 1136.9,-334.11"/>
<polygon   points="1140.4,-334.1 1136.9,-324.1 1133.4,-334.1 1140.4,-334.1"/>
</g>
<!-- n81 -->
<g id="node82" class="node">
<title>n81</title>
<ellipse   cx="1354.9" cy="-306" rx="49.29" ry="18"/>
<text text-anchor="middle" x="1354.9" y="-302.3"  font-size="14.00">winapi&#45;util</text>
</g>
<!-- n19&#45;&gt;n81 -->
<g id="edge40" class="edge">
<title>n19&#45;&gt;n81</title>
<path   d="M1338.98,-360.05C1341.32,-352.26 1344.15,-342.82 1346.77,-334.08"/>
<polygon   points="1350.19,-334.86 1349.71,-324.28 1343.49,-332.85 1350.19,-334.86"/>
</g>
<!-- n22&#45;&gt;n5 -->
<g id="edge33" class="edge">
<title>n22&#45;&gt;n5</title>
<path   d="M2130.63,-293.37C2108.58,-285.55 2084.92,-272.73 2071.9,-252 2059.6,-232.43 2069.71,-207.04 2081.06,-188.38"/>
<polygon   points="2084.11,-190.11 2086.64,-179.82 2078.25,-186.29 2084.11,-190.11"/>
</g>
<!-- n22&#45;&gt;n23 -->
<g id="edge30" class="edge">
<title>n22&#45;&gt;n23</title>
<path   d="M2146.66,-290.18C2130.86,-281.54 2113.81,-268.95 2104.9,-252 2097.45,-237.84 2096.47,-229.6 2104.9,-216 2109.64,-208.36 2241.53,-147.3 2249.9,-144 2291.03,-127.8 2339.16,-113.75 2375,-104.19"/>
<polygon   points="2375.98,-107.55 2384.76,-101.62 2374.2,-100.79 2375.98,-107.55"/>
</g>
<!-- n22&#45;&gt;n24 -->
<g id="edge31" class="edge">
<title>n22&#45;&gt;n24</title>
<path   d="M2216.95,-290.2C2239.62,-280.24 2269.52,-266.33 2294.9,-252 2333.15,-230.39 2374.89,-201.52 2401.21,-182.61"/>
<polygon   points="2403.47,-185.29 2409.52,-176.6 2399.37,-179.62 2403.47,-185.29"/>
</g>
<!-- n22&#45;&gt;n25 -->
<g id="edge32" class="edge">
<title>n22&#45;&gt;n25</title>
<path   d="M2235.24,-293.99C2305.07,-279.57 2425.58,-254.68 2485.27,-242.36"/>
<polygon   points="2486.25,-245.73 2495.34,-240.28 2484.84,-238.87 2486.25,-245.73"/>
</g>
<!-- n75 -->
<g id="node76" class="node">
<title>n75</title>
<ellipse   cx="2199.9" cy="-234" rx="86.38" ry="18"/>
<text text-anchor="middle" x="2199.9" y="-230.3"  font-size="14.00">proc&#45;macro&#45;error&#45;attr</text>
</g>
<!-- n22&#45;&gt;n75 -->
<g id="edge29" class="edge">
<title>n22&#45;&gt;n75</title>
<path   d="M2186.35,-287.7C2188.35,-279.9 2190.77,-270.51 2193,-261.83"/>
<polygon   points="2196.4,-262.66 2195.5,-252.1 2189.62,-260.92 2196.4,-262.66"/>
</g>
<!-- n76 -->
<g id="node77" class="node">
<title>n76</title>
<ellipse   cx="2573.9" cy="-18" rx="59.29" ry="18"/>
<text text-anchor="middle" x="2573.9" y="-14.3"  font-size="14.00">unicode&#45;ident</text>
</g>
<!-- n23&#45;&gt;n76 -->
<g id="edge132" class="edge">
<title>n23&#45;&gt;n76</title>
<path   d="M2457.79,-74.67C2479.89,-64.07 2510.19,-49.54 2534.3,-37.99"/>
<polygon   points="2536.03,-41.04 2543.54,-33.56 2533.01,-34.72 2536.03,-41.04"/>
</g>
<!-- n24&#45;&gt;n23 -->
<g id="edge131" class="edge">
<title>n24&#45;&gt;n23</title>
<path   d="M2427.9,-143.7C2427.9,-135.98 2427.9,-126.71 2427.9,-118.11"/>
<polygon   points="2431.4,-118.1 2427.9,-108.1 2424.4,-118.1 2431.4,-118.1"/>
</g>
<!-- n25&#45;&gt;n23 -->
<g id="edge128" class="edge">
<title>n25&#45;&gt;n23</title>
<path   d="M2512.03,-216.92C2501.89,-198.84 2484.55,-168.78 2467.9,-144 2461.56,-134.57 2454.18,-124.55 2447.49,-115.79"/>
<polygon   points="2450.23,-113.62 2441.35,-107.84 2444.69,-117.89 2450.23,-113.62"/>
</g>
<!-- n25&#45;&gt;n24 -->
<g id="edge129" class="edge">
<title>n25&#45;&gt;n24</title>
<path   d="M2503.4,-219.83C2489.55,-209.41 2469.98,-194.68 2454.24,-182.83"/>
<polygon   points="2456.04,-179.8 2445.94,-176.58 2451.83,-185.4 2456.04,-179.8"/>
</g>
<!-- n25&#45;&gt;n76 -->
<g id="edge130" class="edge">
<title>n25&#45;&gt;n76</title>
<path   d="M2525.06,-216.21C2534.2,-179.26 2556.15,-90.67 2567.24,-45.89"/>
<polygon   points="2570.68,-46.56 2569.68,-36.01 2563.88,-44.88 2570.68,-46.56"/>
</g>
<!-- n27 -->
<g id="node28" class="node">
<title>n27</title>
<ellipse   cx="496.9" cy="-378" rx="52.79" ry="18"/>
<text text-anchor="middle" x="496.9" y="-374.3"  font-size="14.00">color_quant</text>
</g>
<!-- n28 -->
<g id="node29" class="node">
<title>n28</title>
<ellipse   cx="2637.9" cy="-666" rx="44.39" ry="18"/>
<text text-anchor="middle" x="2637.9" y="-662.3"  font-size="14.00">colorgrad</text>
</g>
<!-- n29 -->
<g id="node30" class="node">
<title>n29</title>
<ellipse   cx="2637.9" cy="-594" rx="61.19" ry="18"/>
<text text-anchor="middle" x="2637.9" y="-590.3"  font-size="14.00">csscolorparser</text>
</g>
<!-- n28&#45;&gt;n29 -->
<g id="edge44" class="edge">
<title>n28&#45;&gt;n29</title>
<path   d="M2637.9,-647.7C2637.9,-639.98 2637.9,-630.71 2637.9,-622.11"/>
<polygon   points="2641.4,-622.1 2637.9,-612.1 2634.4,-622.1 2641.4,-622.1"/>
</g>
<!-- n39 -->
<g id="node40" class="node">
<title>n39</title>
<ellipse   cx="2638.9" cy="-522" rx="27" ry="18"/>
<text text-anchor="middle" x="2638.9" y="-518.3"  font-size="14.00">phf</text>
</g>
<!-- n29&#45;&gt;n39 -->
<g id="edge45" class="edge">
<title>n29&#45;&gt;n39</title>
<path   d="M2638.14,-575.7C2638.25,-567.98 2638.39,-558.71 2638.51,-550.11"/>
<polygon   points="2642.01,-550.15 2638.65,-540.1 2635.01,-550.05 2642.01,-550.15"/>
</g>
<!-- n30 -->
<g id="node31" class="node">
<title>n30</title>
<ellipse   cx="2773.9" cy="-666" rx="27.9" ry="18"/>
<text text-anchor="middle" x="2773.9" y="-662.3"  font-size="14.00">conv</text>
</g>
<!-- n31 -->
<g id="node32" class="node">
<title>n31</title>
<ellipse   cx="2817.9" cy="-594" rx="63.09" ry="18"/>
<text text-anchor="middle" x="2817.9" y="-590.3"  font-size="14.00">custom_derive</text>
</g>
<!-- n30&#45;&gt;n31 -->
<g id="edge56" class="edge">
<title>n30&#45;&gt;n31</title>
<path   d="M2783.88,-649.12C2789.18,-640.68 2795.83,-630.1 2801.84,-620.55"/>
<polygon   points="2804.98,-622.13 2807.34,-611.8 2799.05,-618.4 2804.98,-622.13"/>
</g>
<!-- n32 -->
<g id="node33" class="node">
<title>n32</title>
<ellipse   cx="42.9" cy="-306" rx="42.79" ry="18"/>
<text text-anchor="middle" x="42.9" y="-302.3"  font-size="14.00">crc32fast</text>
</g>
<!-- n32&#45;&gt;n12 -->
<g id="edge120" class="edge">
<title>n32&#45;&gt;n12</title>
<path   d="M35.02,-287.88C22.13,-257.15 0.31,-191.45 24.9,-144 55.93,-84.1 130.25,-48 174.98,-30.94"/>
<polygon   points="176.42,-34.14 184.59,-27.39 174,-27.57 176.42,-34.14"/>
</g>
<!-- n33 -->
<g id="node34" class="node">
<title>n33</title>
<ellipse   cx="112.9" cy="-162" rx="78.79" ry="18"/>
<text text-anchor="middle" x="112.9" y="-158.3"  font-size="14.00">crossbeam&#45;channel</text>
</g>
<!-- n33&#45;&gt;n12 -->
<g id="edge97" class="edge">
<title>n33&#45;&gt;n12</title>
<path   d="M117.48,-143.75C123.05,-124.89 133.75,-94.4 149.9,-72 159.07,-59.27 171.88,-47.55 183.38,-38.38"/>
<polygon   points="185.66,-41.05 191.47,-32.18 181.4,-35.49 185.66,-41.05"/>
</g>
<!-- n34 -->
<g id="node35" class="node">
<title>n34</title>
<ellipse   cx="257.9" cy="-90" rx="66.09" ry="18"/>
<text text-anchor="middle" x="257.9" y="-86.3"  font-size="14.00">crossbeam&#45;utils</text>
</g>
<!-- n33&#45;&gt;n34 -->
<g id="edge98" class="edge">
<title>n33&#45;&gt;n34</title>
<path   d="M145.08,-145.46C166.49,-135.13 194.78,-121.47 217.68,-110.42"/>
<polygon   points="219.32,-113.51 226.8,-106.01 216.27,-107.21 219.32,-113.51"/>
</g>
<!-- n34&#45;&gt;n4 -->
<g id="edge109" class="edge">
<title>n34&#45;&gt;n4</title>
<path   d="M298.08,-75.67C334.74,-63.51 388.75,-45.59 426.18,-33.17"/>
<polygon   points="427.41,-36.45 435.8,-29.98 425.2,-29.81 427.41,-36.45"/>
</g>
<!-- n34&#45;&gt;n12 -->
<g id="edge108" class="edge">
<title>n34&#45;&gt;n12</title>
<path   d="M246.52,-72.05C240.84,-63.59 233.85,-53.19 227.58,-43.84"/>
<polygon   points="230.33,-41.66 221.85,-35.31 224.51,-45.56 230.33,-41.66"/>
</g>
<!-- n35 -->
<g id="node36" class="node">
<title>n35</title>
<ellipse   cx="357.9" cy="-234" rx="72.29" ry="18"/>
<text text-anchor="middle" x="357.9" y="-230.3"  font-size="14.00">crossbeam&#45;deque</text>
</g>
<!-- n35&#45;&gt;n12 -->
<g id="edge99" class="edge">
<title>n35&#45;&gt;n12</title>
<path   d="M320.25,-218.61C277.99,-200.18 211.6,-163.77 182.9,-108 172.24,-87.3 182.38,-61.79 193.31,-43.4"/>
<polygon   points="196.41,-45.06 198.83,-34.74 190.51,-41.29 196.41,-45.06"/>
</g>
<!-- n35&#45;&gt;n34 -->
<g id="edge101" class="edge">
<title>n35&#45;&gt;n34</title>
<path   d="M343.46,-216.2C334.86,-205.96 323.92,-192.49 314.9,-180 299.98,-159.35 284.48,-134.93 273.42,-116.9"/>
<polygon   points="276.25,-114.83 268.06,-108.1 270.28,-118.47 276.25,-114.83"/>
</g>
<!-- n36 -->
<g id="node37" class="node">
<title>n36</title>
<ellipse   cx="395.9" cy="-162" rx="72.29" ry="18"/>
<text text-anchor="middle" x="395.9" y="-158.3"  font-size="14.00">crossbeam&#45;epoch</text>
</g>
<!-- n35&#45;&gt;n36 -->
<g id="edge100" class="edge">
<title>n35&#45;&gt;n36</title>
<path   d="M367.09,-216.05C371.46,-208.01 376.79,-198.2 381.66,-189.23"/>
<polygon   points="384.82,-190.73 386.52,-180.28 378.67,-187.39 384.82,-190.73"/>
</g>
<!-- n36&#45;&gt;n4 -->
<g id="edge106" class="edge">
<title>n36&#45;&gt;n4</title>
<path   d="M395.01,-143.85C394.78,-125.08 396.63,-94.66 408.9,-72 415.7,-59.44 426.71,-48.42 437.46,-39.73"/>
<polygon   points="439.73,-42.4 445.55,-33.55 435.48,-36.83 439.73,-42.4"/>
</g>
<!-- n36&#45;&gt;n10 -->
<g id="edge102" class="edge">
<title>n36&#45;&gt;n10</title>
<path   d="M433.71,-146.66C460.47,-136.34 497.11,-121.85 528.9,-108 563.16,-93.07 570.59,-86.84 604.9,-72 637.21,-58.02 674.5,-43.5 701.69,-33.2"/>
<polygon   points="703.1,-36.41 711.22,-29.61 700.63,-29.86 703.1,-36.41"/>
</g>
<!-- n36&#45;&gt;n12 -->
<g id="edge103" class="edge">
<title>n36&#45;&gt;n12</title>
<path   d="M387.43,-143.79C377,-124.12 357.58,-92.06 332.9,-72 307.9,-51.69 273.92,-37.78 248.17,-29.32"/>
<polygon   points="248.98,-25.91 238.39,-26.24 246.88,-32.58 248.98,-25.91"/>
</g>
<!-- n36&#45;&gt;n34 -->
<g id="edge104" class="edge">
<title>n36&#45;&gt;n34</title>
<path   d="M365.61,-145.64C345.48,-135.43 318.84,-121.92 297.1,-110.88"/>
<polygon   points="298.61,-107.73 288.11,-106.33 295.45,-113.97 298.61,-107.73"/>
</g>
<!-- n37 -->
<g id="node38" class="node">
<title>n37</title>
<ellipse   cx="662.9" cy="-90" rx="49.29" ry="18"/>
<text text-anchor="middle" x="662.9" y="-86.3"  font-size="14.00">memoffset</text>
</g>
<!-- n36&#45;&gt;n37 -->
<g id="edge105" class="edge">
<title>n36&#45;&gt;n37</title>
<path   d="M444.15,-148.6C485.51,-137.94 546.66,-122.1 599.9,-108 604.77,-106.71 609.85,-105.35 614.92,-104"/>
<polygon   points="615.85,-107.37 624.6,-101.4 614.03,-100.61 615.85,-107.37"/>
</g>
<!-- n38 -->
<g id="node39" class="node">
<title>n38</title>
<ellipse   cx="468.9" cy="-90" rx="50.89" ry="18"/>
<text text-anchor="middle" x="468.9" y="-86.3"  font-size="14.00">scopeguard</text>
</g>
<!-- n36&#45;&gt;n38 -->
<g id="edge107" class="edge">
<title>n36&#45;&gt;n38</title>
<path   d="M413.2,-144.41C422.54,-135.45 434.22,-124.25 444.47,-114.42"/>
<polygon   points="447.18,-116.68 451.97,-107.23 442.33,-111.62 447.18,-116.68"/>
</g>
<!-- n37&#45;&gt;n10 -->
<g id="edge110" class="edge">
<title>n37&#45;&gt;n10</title>
<path   d="M680.37,-73.12C690.82,-63.61 704.26,-51.39 715.73,-40.97"/>
<polygon   points="718.24,-43.42 723.28,-34.1 713.53,-38.24 718.24,-43.42"/>
</g>
<!-- n69 -->
<g id="node70" class="node">
<title>n69</title>
<ellipse   cx="2624.9" cy="-450" rx="52.79" ry="18"/>
<text text-anchor="middle" x="2624.9" y="-446.3"  font-size="14.00">phf_macros</text>
</g>
<!-- n39&#45;&gt;n69 -->
<g id="edge46" class="edge">
<title>n39&#45;&gt;n69</title>
<path   d="M2635.51,-504.05C2633.97,-496.35 2632.1,-487.03 2630.37,-478.36"/>
<polygon   points="2633.74,-477.39 2628.35,-468.28 2626.88,-478.77 2633.74,-477.39"/>
</g>
<!-- n70 -->
<g id="node71" class="node">
<title>n70</title>
<ellipse   cx="2610.9" cy="-306" rx="50.09" ry="18"/>
<text text-anchor="middle" x="2610.9" y="-302.3"  font-size="14.00">phf_shared</text>
</g>
<!-- n39&#45;&gt;n70 -->
<g id="edge47" class="edge">
<title>n39&#45;&gt;n70</title>
<path   d="M2656.16,-507.79C2667.27,-498.14 2680.73,-483.98 2686.9,-468 2693.62,-450.55 2690.15,-373.41 2682.9,-360 2675.28,-345.91 2662.1,-334.57 2649.09,-326.05"/>
<polygon   points="2650.53,-322.83 2640.17,-320.6 2646.88,-328.8 2650.53,-322.83"/>
</g>
<!-- n40 -->
<g id="node41" class="node">
<title>n40</title>
<ellipse   cx="416.9" cy="-306" rx="30.59" ry="18"/>
<text text-anchor="middle" x="416.9" y="-302.3"  font-size="14.00">either</text>
</g>
<!-- n41 -->
<g id="node42" class="node">
<title>n41</title>
<ellipse   cx="1453.9" cy="-450" rx="74.99" ry="18"/>
<text text-anchor="middle" x="1453.9" y="-446.3"  font-size="14.00">fast_image_resize</text>
</g>
<!-- n42 -->
<g id="node43" class="node">
<title>n42</title>
<ellipse   cx="852.9" cy="-90" rx="47.39" ry="18"/>
<text text-anchor="middle" x="852.9" y="-86.3"  font-size="14.00">num&#45;traits</text>
</g>
<!-- n41&#45;&gt;n42 -->
<g id="edge70" class="edge">
<title>n41&#45;&gt;n42</title>
<path   d="M1399.78,-437.42C1389.87,-435.48 1379.59,-433.58 1369.9,-432 1245.34,-411.64 815.9,-433.21 815.9,-307 815.9,-307 815.9,-307 815.9,-233 815.9,-191.71 830.73,-145.77 841.61,-117.63"/>
<polygon   points="844.96,-118.7 845.41,-108.11 838.45,-116.11 844.96,-118.7"/>
</g>
<!-- n43 -->
<g id="node44" class="node">
<title>n43</title>
<ellipse   cx="2330.9" cy="-378" rx="40.09" ry="18"/>
<text text-anchor="middle" x="2330.9" y="-374.3"  font-size="14.00">thiserror</text>
</g>
<!-- n41&#45;&gt;n43 -->
<g id="edge71" class="edge">
<title>n41&#45;&gt;n43</title>
<path   d="M1526.36,-445.46C1660.63,-438.55 1957.07,-421.66 2205.9,-396 2231.61,-393.35 2260.19,-389.53 2283.52,-386.18"/>
<polygon   points="2284.11,-389.63 2293.5,-384.73 2283.11,-382.7 2284.11,-389.63"/>
</g>
<!-- n42&#45;&gt;n10 -->
<g id="edge72" class="edge">
<title>n42&#45;&gt;n10</title>
<path   d="M829.21,-74.33C812.19,-63.78 789.09,-49.48 770.65,-38.05"/>
<polygon   points="772.36,-34.99 762.02,-32.7 768.68,-40.95 772.36,-34.99"/>
</g>
<!-- n82 -->
<g id="node83" class="node">
<title>n82</title>
<ellipse   cx="2368.9" cy="-306" rx="59.59" ry="18"/>
<text text-anchor="middle" x="2368.9" y="-302.3"  font-size="14.00">thiserror&#45;impl</text>
</g>
<!-- n43&#45;&gt;n82 -->
<g id="edge73" class="edge">
<title>n43&#45;&gt;n82</title>
<path   d="M2339.9,-360.41C2344.38,-352.16 2349.89,-342.01 2354.9,-332.78"/>
<polygon   points="2358,-334.41 2359.69,-323.96 2351.84,-331.07 2358,-334.41"/>
</g>
<!-- n44 -->
<g id="node45" class="node">
<title>n44</title>
<ellipse   cx="103.9" cy="-378" rx="30.59" ry="18"/>
<text text-anchor="middle" x="103.9" y="-374.3"  font-size="14.00">flate2</text>
</g>
<!-- n44&#45;&gt;n32 -->
<g id="edge118" class="edge">
<title>n44&#45;&gt;n32</title>
<path   d="M90.36,-361.46C82.6,-352.57 72.7,-341.21 63.95,-331.16"/>
<polygon   points="66.45,-328.71 57.25,-323.47 61.18,-333.31 66.45,-328.71"/>
</g>
<!-- n45 -->
<g id="node46" class="node">
<title>n45</title>
<ellipse   cx="158.9" cy="-306" rx="55.49" ry="18"/>
<text text-anchor="middle" x="158.9" y="-302.3"  font-size="14.00">miniz_oxide</text>
</g>
<!-- n44&#45;&gt;n45 -->
<g id="edge119" class="edge">
<title>n44&#45;&gt;n45</title>
<path   d="M116.1,-361.46C122.93,-352.78 131.59,-341.75 139.34,-331.89"/>
<polygon   points="142.14,-333.99 145.57,-323.96 136.64,-329.66 142.14,-333.99"/>
</g>
<!-- n45&#45;&gt;n1 -->
<g id="edge121" class="edge">
<title>n45&#45;&gt;n1</title>
<path   d="M158.9,-287.7C158.9,-279.98 158.9,-270.71 158.9,-262.11"/>
<polygon   points="162.4,-262.1 158.9,-252.1 155.4,-262.1 162.4,-262.1"/>
</g>
<!-- n46 -->
<g id="node47" class="node">
<title>n46</title>
<ellipse   cx="689.9" cy="-450" rx="37.89" ry="18"/>
<text text-anchor="middle" x="689.9" y="-446.3"  font-size="14.00">fontdue</text>
</g>
<!-- n47 -->
<g id="node48" class="node">
<title>n47</title>
<ellipse   cx="922.9" cy="-306" rx="78.79" ry="18"/>
<text text-anchor="middle" x="922.9" y="-302.3"  font-size="14.00">hashbrown v0.11.2</text>
</g>
<!-- n46&#45;&gt;n47 -->
<g id="edge77" class="edge">
<title>n46&#45;&gt;n47</title>
<path   d="M712.24,-435.38C752.88,-410.62 839.18,-358.02 887.76,-328.41"/>
<polygon   points="889.66,-331.36 896.38,-323.16 886.01,-325.38 889.66,-331.36"/>
</g>
<!-- n48 -->
<g id="node49" class="node">
<title>n48</title>
<ellipse   cx="639.9" cy="-378" rx="72.29" ry="18"/>
<text text-anchor="middle" x="639.9" y="-374.3"  font-size="14.00">ttf&#45;parser v0.15.2</text>
</g>
<!-- n46&#45;&gt;n48 -->
<g id="edge78" class="edge">
<title>n46&#45;&gt;n48</title>
<path   d="M678.3,-432.76C672.29,-424.35 664.82,-413.89 658.06,-404.44"/>
<polygon   points="660.79,-402.23 652.13,-396.12 655.09,-406.3 660.79,-402.23"/>
</g>
<!-- n47&#45;&gt;n2 -->
<g id="edge79" class="edge">
<title>n47&#45;&gt;n2</title>
<path   d="M975.1,-292.49C1033.11,-278.58 1125.38,-256.46 1176.91,-244.11"/>
<polygon   points="1178.05,-247.43 1186.96,-241.7 1176.42,-240.62 1178.05,-247.43"/>
</g>
<!-- n50 -->
<g id="node51" class="node">
<title>n50</title>
<ellipse   cx="496.9" cy="-450" rx="27" ry="18"/>
<text text-anchor="middle" x="496.9" y="-446.3"  font-size="14.00">gif</text>
</g>
<!-- n50&#45;&gt;n27 -->
<g id="edge86" class="edge">
<title>n50&#45;&gt;n27</title>
<path   d="M496.9,-431.7C496.9,-423.98 496.9,-414.71 496.9,-406.11"/>
<polygon   points="500.4,-406.1 496.9,-396.1 493.4,-406.1 500.4,-406.1"/>
</g>
<!-- n51 -->
<g id="node52" class="node">
<title>n51</title>
<ellipse   cx="394.9" cy="-378" rx="31.4" ry="18"/>
<text text-anchor="middle" x="394.9" y="-374.3"  font-size="14.00">weezl</text>
</g>
<!-- n50&#45;&gt;n51 -->
<g id="edge87" class="edge">
<title>n50&#45;&gt;n51</title>
<path   d="M478.66,-436.49C463.1,-425.81 440.48,-410.28 422.67,-398.06"/>
<polygon   points="424.59,-395.13 414.36,-392.36 420.63,-400.9 424.59,-395.13"/>
</g>
<!-- n53 -->
<g id="node54" class="node">
<title>n53</title>
<ellipse   cx="2547.9" cy="-522" rx="46.29" ry="18"/>
<text text-anchor="middle" x="2547.9" y="-518.3"  font-size="14.00">hex_color</text>
</g>
<!-- n54 -->
<g id="node55" class="node">
<title>n54</title>
<ellipse   cx="1954.9" cy="-306" rx="27" ry="18"/>
<text text-anchor="middle" x="1954.9" y="-302.3"  font-size="14.00">rand</text>
</g>
<!-- n53&#45;&gt;n54 -->
<g id="edge57" class="edge">
<title>n53&#45;&gt;n54</title>
<path   d="M2511.75,-510.66C2503.89,-508.44 2495.62,-506.13 2487.9,-504 2308.7,-454.67 2252.64,-473.91 2083.9,-396 2044.17,-377.66 2003.45,-347.24 1978.66,-327.15"/>
<polygon   points="1980.84,-324.41 1970.89,-320.77 1976.39,-329.82 1980.84,-324.41"/>
</g>
<!-- n54&#45;&gt;n8 -->
<g id="edge58" class="edge">
<title>n54&#45;&gt;n8</title>
<path   d="M1960.9,-288.41C1971.38,-256.2 1988.68,-184.75 1952.9,-144 1840.91,-16.49 1360.57,-80.85 1196.9,-36 1193.52,-35.08 1190.06,-33.95 1186.64,-32.71"/>
<polygon   points="1187.83,-29.42 1177.24,-29.04 1185.28,-35.94 1187.83,-29.42"/>
</g>
<!-- n77 -->
<g id="node78" class="node">
<title>n77</title>
<ellipse   cx="1888.9" cy="-234" rx="55.49" ry="18"/>
<text text-anchor="middle" x="1888.9" y="-230.3"  font-size="14.00">rand_chacha</text>
</g>
<!-- n54&#45;&gt;n77 -->
<g id="edge59" class="edge">
<title>n54&#45;&gt;n77</title>
<path   d="M1940.9,-290.15C1932.34,-281.07 1921.18,-269.24 1911.4,-258.87"/>
<polygon   points="1913.66,-256.17 1904.26,-251.29 1908.57,-260.97 1913.66,-256.17"/>
</g>
<!-- n78 -->
<g id="node79" class="node">
<title>n78</title>
<ellipse   cx="1785.9" cy="-162" rx="46.29" ry="18"/>
<text text-anchor="middle" x="1785.9" y="-158.3"  font-size="14.00">rand_core</text>
</g>
<!-- n54&#45;&gt;n78 -->
<g id="edge60" class="edge">
<title>n54&#45;&gt;n78</title>
<path   d="M1929,-300.48C1900.21,-294.22 1853.96,-280.32 1824.9,-252 1807.59,-235.13 1797.44,-209.27 1791.86,-189.77"/>
<polygon   points="1795.2,-188.74 1789.27,-179.96 1788.43,-190.52 1795.2,-188.74"/>
</g>
<!-- n55 -->
<g id="node56" class="node">
<title>n55</title>
<polygon   points="2683.9,-756 2591.9,-756 2591.9,-720 2683.9,-720 2683.9,-756"/>
<text text-anchor="middle" x="2637.9" y="-734.3"  font-size="14.00">ipv4&#45;heatmap</text>
</g>
<!-- n55&#45;&gt;n13 -->
<g id="edge1" class="edge">
<title>n55&#45;&gt;n13</title>
<path   d="M2591.82,-727.83C2547.69,-718.54 2479.5,-702.89 2421.9,-684 2418.75,-682.97 2415.5,-681.8 2412.28,-680.58"/>
<polygon   points="2413.38,-677.25 2402.79,-676.8 2410.79,-683.75 2413.38,-677.25"/>
</g>
<!-- n55&#45;&gt;n14 -->
<g id="edge2" class="edge">
<title>n55&#45;&gt;n14</title>
<path   d="M2607.27,-719.99C2571.22,-700.5 2509.12,-668.61 2452.9,-648 2333.47,-604.22 2300.72,-600.49 2175.9,-576 1821.24,-506.41 1716.52,-570.38 1369.9,-468 1367.96,-467.43 1365.99,-466.76 1364.03,-466.04"/>
<polygon   points="1364.98,-462.64 1354.41,-462.01 1362.28,-469.1 1364.98,-462.64"/>
</g>
<!-- n55&#45;&gt;n28 -->
<g id="edge3" class="edge">
<title>n55&#45;&gt;n28</title>
<path   d="M2637.9,-719.7C2637.9,-711.98 2637.9,-702.71 2637.9,-694.11"/>
<polygon   points="2641.4,-694.1 2637.9,-684.1 2634.4,-694.1 2641.4,-694.1"/>
</g>
<!-- n55&#45;&gt;n30 -->
<g id="edge4" class="edge">
<title>n55&#45;&gt;n30</title>
<path   d="M2671.17,-719.88C2693.36,-708.45 2722.3,-693.56 2743.81,-682.49"/>
<polygon   points="2745.53,-685.54 2752.82,-677.85 2742.33,-679.31 2745.53,-685.54"/>
</g>
<!-- n55&#45;&gt;n53 -->
<g id="edge5" class="edge">
<title>n55&#45;&gt;n53</title>
<path   d="M2615.62,-719.8C2604.82,-710.34 2592.56,-697.75 2584.9,-684 2561.05,-641.24 2552.56,-583.92 2549.54,-550.47"/>
<polygon   points="2553,-549.79 2548.71,-540.1 2546.02,-550.34 2553,-549.79"/>
</g>
<!-- n56 -->
<g id="node57" class="node">
<title>n56</title>
<ellipse   cx="2867.9" cy="-666" rx="48.19" ry="18"/>
<text text-anchor="middle" x="2867.9" y="-662.3"  font-size="14.00">lazy_static</text>
</g>
<!-- n55&#45;&gt;n56 -->
<g id="edge6" class="edge">
<title>n55&#45;&gt;n56</title>
<path   d="M2684.16,-722.92C2724.31,-710.7 2782.12,-693.11 2822.12,-680.93"/>
<polygon   points="2823.34,-684.22 2831.89,-677.96 2821.3,-677.52 2823.34,-684.22"/>
</g>
<!-- n57 -->
<g id="node58" class="node">
<title>n57</title>
<ellipse   cx="745.9" cy="-522" rx="27" ry="18"/>
<text text-anchor="middle" x="745.9" y="-518.3"  font-size="14.00">ril</text>
</g>
<!-- n55&#45;&gt;n57 -->
<g id="edge7" class="edge">
<title>n55&#45;&gt;n57</title>
<path   d="M2591.65,-728.64C2554.5,-720.68 2501.79,-706.52 2459.9,-684 2437.94,-672.2 2439.51,-658.47 2416.9,-648 2245.43,-568.61 2185.78,-596.04 1997.9,-576 1520.45,-525.08 935.68,-522.57 783.51,-522.84"/>
<polygon   points="783.3,-519.34 773.31,-522.86 783.31,-526.34 783.3,-519.34"/>
</g>
<!-- n58 -->
<g id="node59" class="node">
<title>n58</title>
<ellipse   cx="1907.9" cy="-666" rx="38.99" ry="18"/>
<text text-anchor="middle" x="1907.9" y="-662.3"  font-size="14.00">rusttype</text>
</g>
<!-- n55&#45;&gt;n58 -->
<g id="edge8" class="edge">
<title>n55&#45;&gt;n58</title>
<path   d="M2591.68,-732.57C2460.92,-720.03 2089.24,-684.39 1956.09,-671.62"/>
<polygon   points="1956.1,-668.11 1945.81,-670.64 1955.43,-675.07 1956.1,-668.11"/>
</g>
<!-- n59 -->
<g id="node60" class="node">
<title>n59</title>
<ellipse   cx="2944.9" cy="-594" rx="29.5" ry="18"/>
<text text-anchor="middle" x="2944.9" y="-590.3"  font-size="14.00">serde</text>
</g>
<!-- n55&#45;&gt;n59 -->
<g id="edge9" class="edge">
<title>n55&#45;&gt;n59</title>
<path   d="M2684.09,-734.53C2756.28,-729.7 2891.12,-716.5 2924.9,-684 2941.34,-668.18 2945.61,-641.97 2946.2,-622.08"/>
<polygon   points="2949.7,-622.07 2946.21,-612.06 2942.7,-622.06 2949.7,-622.07"/>
</g>
<!-- n60 -->
<g id="node61" class="node">
<title>n60</title>
<ellipse   cx="2734.9" cy="-306" rx="55.79" ry="18"/>
<text text-anchor="middle" x="2734.9" y="-302.3"  font-size="14.00">serde_derive</text>
</g>
<!-- n55&#45;&gt;n60 -->
<g id="edge10" class="edge">
<title>n55&#45;&gt;n60</title>
<path   d="M2660.17,-719.8C2670.97,-710.34 2683.23,-697.75 2690.9,-684 2755.81,-567.57 2745.61,-399.73 2738.47,-334.44"/>
<polygon   points="2741.91,-333.7 2737.28,-324.17 2734.95,-334.5 2741.91,-333.7"/>
</g>
<!-- n61 -->
<g id="node62" class="node">
<title>n61</title>
<ellipse   cx="3019.9" cy="-666" rx="48.19" ry="18"/>
<text text-anchor="middle" x="3019.9" y="-662.3"  font-size="14.00">serde_json</text>
</g>
<!-- n55&#45;&gt;n61 -->
<g id="edge11" class="edge">
<title>n55&#45;&gt;n61</title>
<path   d="M2684.02,-730.89C2746.47,-722.27 2861.22,-705.2 2957.9,-684 2962.95,-682.89 2968.2,-681.63 2973.41,-680.3"/>
<polygon   points="2974.55,-683.62 2983.33,-677.7 2972.77,-676.85 2974.55,-683.62"/>
</g>
<!-- n57&#45;&gt;n41 -->
<g id="edge64" class="edge">
<title>n57&#45;&gt;n41</title>
<path   d="M772.78,-519.82C859.59,-515.79 1140.11,-500.9 1369.9,-468 1376.63,-467.04 1383.63,-465.88 1390.59,-464.62"/>
<polygon   points="1391.55,-468 1400.73,-462.72 1390.26,-461.12 1391.55,-468"/>
</g>
<!-- n57&#45;&gt;n46 -->
<g id="edge65" class="edge">
<title>n57&#45;&gt;n46</title>
<path   d="M733.75,-505.81C726.54,-496.8 717.24,-485.18 709.06,-474.95"/>
<polygon   points="711.78,-472.76 702.8,-467.13 706.32,-477.13 711.78,-472.76"/>
</g>
<!-- n57&#45;&gt;n50 -->
<g id="edge66" class="edge">
<title>n57&#45;&gt;n50</title>
<path   d="M725.25,-510.4C720.3,-508.1 714.97,-505.81 709.9,-504 649.05,-482.3 575.39,-466.1 532.56,-457.63"/>
<polygon   points="533.11,-454.17 522.62,-455.69 531.77,-461.04 533.11,-454.17"/>
</g>
<!-- n63 -->
<g id="node64" class="node">
<title>n63</title>
<ellipse   cx="354.9" cy="-450" rx="56.59" ry="18"/>
<text text-anchor="middle" x="354.9" y="-446.3"  font-size="14.00">jpeg&#45;decoder</text>
</g>
<!-- n57&#45;&gt;n63 -->
<g id="edge67" class="edge">
<title>n57&#45;&gt;n63</title>
<path   d="M725.37,-510.03C720.42,-507.74 715.06,-505.55 709.9,-504 602.82,-471.77 571.44,-484.85 460.9,-468 445.63,-465.67 429.14,-463.07 413.82,-460.62"/>
<polygon   points="414.38,-457.16 403.95,-459.03 413.27,-464.07 414.38,-457.16"/>
</g>
<!-- n65 -->
<g id="node66" class="node">
<title>n65</title>
<ellipse   cx="801.9" cy="-450" rx="56.59" ry="18"/>
<text text-anchor="middle" x="801.9" y="-446.3"  font-size="14.00">jpeg&#45;encoder</text>
</g>
<!-- n57&#45;&gt;n65 -->
<g id="edge68" class="edge">
<title>n57&#45;&gt;n65</title>
<path   d="M758.05,-505.81C765.08,-497.02 774.11,-485.73 782.15,-475.69"/>
<polygon   points="785.08,-477.62 788.59,-467.63 779.61,-473.25 785.08,-477.62"/>
</g>
<!-- n73 -->
<g id="node74" class="node">
<title>n73</title>
<ellipse   cx="162.9" cy="-450" rx="27" ry="18"/>
<text text-anchor="middle" x="162.9" y="-446.3"  font-size="14.00">png</text>
</g>
<!-- n57&#45;&gt;n73 -->
<g id="edge69" class="edge">
<title>n57&#45;&gt;n73</title>
<path   d="M725.44,-509.81C720.48,-507.53 715.1,-505.4 709.9,-504 528.57,-455.13 475.56,-488.56 288.9,-468 258.56,-464.66 224.25,-459.97 199.09,-456.36"/>
<polygon   points="199.31,-452.86 188.91,-454.89 198.31,-459.78 199.31,-452.86"/>
</g>
<!-- n58&#45;&gt;n0 -->
<g id="edge122" class="edge">
<title>n58&#45;&gt;n0</title>
<path   d="M1907.9,-647.7C1907.9,-639.98 1907.9,-630.71 1907.9,-622.11"/>
<polygon   points="1911.4,-622.1 1907.9,-612.1 1904.4,-622.1 1911.4,-622.1"/>
</g>
<!-- n67 -->
<g id="node68" class="node">
<title>n67</title>
<ellipse   cx="958.9" cy="-594" rx="72.29" ry="18"/>
<text text-anchor="middle" x="958.9" y="-590.3"  font-size="14.00">owned_ttf_parser</text>
</g>
<!-- n58&#45;&gt;n67 -->
<g id="edge123" class="edge">
<title>n58&#45;&gt;n67</title>
<path   d="M1869.52,-662.17C1727.63,-651.7 1230.93,-615.07 1037.15,-600.77"/>
<polygon   points="1037.28,-597.27 1027.05,-600.03 1036.76,-604.25 1037.28,-597.27"/>
</g>
<!-- n60&#45;&gt;n23 -->
<g id="edge125" class="edge">
<title>n60&#45;&gt;n23</title>
<path   d="M2731.69,-287.87C2727.22,-268.26 2717.38,-236.27 2697.9,-216 2638.39,-154.09 2542.31,-119.87 2482.25,-103.49"/>
<polygon   points="2483.13,-100.1 2472.56,-100.92 2481.33,-106.87 2483.13,-100.1"/>
</g>
<!-- n60&#45;&gt;n24 -->
<g id="edge126" class="edge">
<title>n60&#45;&gt;n24</title>
<path   d="M2726.09,-288.01C2714.6,-267.62 2692.55,-233.93 2663.9,-216 2603.08,-177.94 2518.33,-167.08 2468.67,-164.06"/>
<polygon   points="2468.8,-160.56 2458.63,-163.53 2468.43,-167.55 2468.8,-160.56"/>
</g>
<!-- n60&#45;&gt;n25 -->
<g id="edge127" class="edge">
<title>n60&#45;&gt;n25</title>
<path   d="M2692.5,-294.1C2656.3,-284.37 2603.06,-269.04 2557.9,-252 2555.8,-251.21 2553.66,-250.35 2551.51,-249.46"/>
<polygon   points="2552.77,-246.19 2542.2,-245.4 2549.97,-252.61 2552.77,-246.19"/>
</g>
<!-- n61&#45;&gt;n59 -->
<g id="edge135" class="edge">
<title>n61&#45;&gt;n59</title>
<path   d="M3002.88,-649.12C2992.48,-639.41 2979.06,-626.89 2967.75,-616.33"/>
<polygon   points="2970.02,-613.66 2960.32,-609.39 2965.24,-618.77 2970.02,-613.66"/>
</g>
<!-- n62 -->
<g id="node63" class="node">
<title>n62</title>
<ellipse   cx="3091.9" cy="-594" rx="27" ry="18"/>
<text text-anchor="middle" x="3091.9" y="-590.3"  font-size="14.00">itoa</text>
</g>
<!-- n61&#45;&gt;n62 -->
<g id="edge133" class="edge">
<title>n61&#45;&gt;n62</title>
<path   d="M3036.6,-648.76C3046.49,-639.14 3059.15,-626.84 3069.85,-616.43"/>
<polygon   points="3072.51,-618.73 3077.24,-609.25 3067.63,-613.71 3072.51,-618.73"/>
</g>
<!-- n80 -->
<g id="node81" class="node">
<title>n80</title>
<ellipse   cx="3019.9" cy="-594" rx="27" ry="18"/>
<text text-anchor="middle" x="3019.9" y="-590.3"  font-size="14.00">ryu</text>
</g>
<!-- n61&#45;&gt;n80 -->
<g id="edge134" class="edge">
<title>n61&#45;&gt;n80</title>
<path   d="M3019.9,-647.7C3019.9,-639.98 3019.9,-630.71 3019.9,-622.11"/>
<polygon   points="3023.4,-622.1 3019.9,-612.1 3016.4,-622.1 3023.4,-622.1"/>
</g>
<!-- n64 -->
<g id="node65" class="node">
<title>n64</title>
<ellipse   cx="314.9" cy="-378" rx="30.59" ry="18"/>
<text text-anchor="middle" x="314.9" y="-374.3"  font-size="14.00">rayon</text>
</g>
<!-- n63&#45;&gt;n64 -->
<g id="edge88" class="edge">
<title>n63&#45;&gt;n64</title>
<path   d="M345.21,-432.05C340.43,-423.68 334.56,-413.4 329.26,-404.13"/>
<polygon   points="332.21,-402.25 324.21,-395.31 326.14,-405.73 332.21,-402.25"/>
</g>
<!-- n64&#45;&gt;n10 -->
<g id="edge89" class="edge">
<title>n64&#45;&gt;n10</title>
<path   d="M338.87,-366.41C344.12,-364.2 349.67,-361.96 354.9,-360 523.4,-296.98 739.9,-414.9 739.9,-235 739.9,-235 739.9,-235 739.9,-161 739.9,-121 739.9,-74.65 739.9,-46.08"/>
<polygon   points="743.4,-46.05 739.9,-36.05 736.4,-46.05 743.4,-46.05"/>
</g>
<!-- n64&#45;&gt;n35 -->
<g id="edge90" class="edge">
<title>n64&#45;&gt;n35</title>
<path   d="M323.4,-360.66C328.48,-350.36 334.73,-336.67 338.9,-324 345.59,-303.65 350.52,-279.88 353.68,-262.03"/>
<polygon   points="357.16,-262.46 355.38,-252.02 350.26,-261.29 357.16,-262.46"/>
</g>
<!-- n64&#45;&gt;n40 -->
<g id="edge91" class="edge">
<title>n64&#45;&gt;n40</title>
<path   d="M334.08,-363.83C349.61,-353.18 371.69,-338.02 389.15,-326.04"/>
<polygon   points="391.53,-328.65 397.8,-320.11 387.57,-322.88 391.53,-328.65"/>
</g>
<!-- n79 -->
<g id="node80" class="node">
<title>n79</title>
<ellipse   cx="280.9" cy="-306" rx="48.99" ry="18"/>
<text text-anchor="middle" x="280.9" y="-302.3"  font-size="14.00">rayon&#45;core</text>
</g>
<!-- n64&#45;&gt;n79 -->
<g id="edge92" class="edge">
<title>n64&#45;&gt;n79</title>
<path   d="M306.84,-360.41C302.87,-352.25 298,-342.22 293.56,-333.07"/>
<polygon   points="296.65,-331.42 289.13,-323.96 290.35,-334.48 296.65,-331.42"/>
</g>
<!-- n66 -->
<g id="node67" class="node">
<title>n66</title>
<ellipse   cx="1002.9" cy="-234" rx="47.39" ry="18"/>
<text text-anchor="middle" x="1002.9" y="-230.3"  font-size="14.00">num_cpus</text>
</g>
<!-- n66&#45;&gt;n7 -->
<g id="edge111" class="edge">
<title>n66&#45;&gt;n7</title>
<path   d="M1012.34,-216.05C1016.94,-207.8 1022.56,-197.7 1027.67,-188.54"/>
<polygon   points="1030.73,-190.23 1032.54,-179.79 1024.62,-186.82 1030.73,-190.23"/>
</g>
<!-- n66&#45;&gt;n8 -->
<g id="edge112" class="edge">
<title>n66&#45;&gt;n8</title>
<path   d="M993.26,-216.07C984.06,-197.49 973.21,-167.24 984.9,-144 1013.74,-86.67 1082.72,-49.42 1123.71,-31.51"/>
<polygon   points="1125.16,-34.7 1133,-27.57 1122.42,-28.25 1125.16,-34.7"/>
</g>
<!-- n68 -->
<g id="node69" class="node">
<title>n68</title>
<ellipse   cx="632.9" cy="-522" rx="67.69" ry="18"/>
<text text-anchor="middle" x="632.9" y="-518.3"  font-size="14.00">ttf&#45;parser v0.6.2</text>
</g>
<!-- n67&#45;&gt;n68 -->
<g id="edge124" class="edge">
<title>n67&#45;&gt;n68</title>
<path   d="M905.44,-581.74C855,-571.09 777.28,-554.61 709.9,-540 704.46,-538.82 698.81,-537.59 693.15,-536.35"/>
<polygon   points="693.52,-532.85 683,-534.12 692.02,-539.68 693.52,-532.85"/>
</g>
<!-- n69&#45;&gt;n23 -->
<g id="edge50" class="edge">
<title>n69&#45;&gt;n23</title>
<path   d="M2660.51,-436.49C2721.51,-412.89 2836.08,-357.83 2799.9,-288 2738.39,-169.29 2574.8,-119.64 2486.46,-100.97"/>
<polygon   points="2487.09,-97.53 2476.59,-98.95 2485.68,-104.38 2487.09,-97.53"/>
</g>
<!-- n69&#45;&gt;n24 -->
<g id="edge51" class="edge">
<title>n69&#45;&gt;n24</title>
<path   d="M2583.95,-438.64C2559.78,-430.62 2530.23,-417.22 2510.9,-396 2456.3,-336.07 2437.09,-237.81 2430.76,-190.35"/>
<polygon   points="2434.21,-189.72 2429.51,-180.23 2427.27,-190.58 2434.21,-189.72"/>
</g>
<!-- n69&#45;&gt;n25 -->
<g id="edge52" class="edge">
<title>n69&#45;&gt;n25</title>
<path   d="M2585.64,-437.95C2564.76,-429.89 2540.78,-416.69 2527.9,-396 2502.4,-355.07 2508.06,-296.28 2514.48,-262.23"/>
<polygon   points="2517.98,-262.59 2516.56,-252.1 2511.12,-261.19 2517.98,-262.59"/>
</g>
<!-- n69&#45;&gt;n70 -->
<g id="edge49" class="edge">
<title>n69&#45;&gt;n70</title>
<path   d="M2642.21,-432.61C2651.15,-422.93 2661.16,-409.87 2665.9,-396 2671.07,-380.86 2672.16,-374.72 2665.9,-360 2660.79,-347.99 2651.48,-337.38 2641.95,-328.87"/>
<polygon   points="2643.91,-325.94 2633.98,-322.23 2639.42,-331.32 2643.91,-325.94"/>
</g>
<!-- n71 -->
<g id="node72" class="node">
<title>n71</title>
<ellipse   cx="2596.9" cy="-378" rx="59.59" ry="18"/>
<text text-anchor="middle" x="2596.9" y="-374.3"  font-size="14.00">phf_generator</text>
</g>
<!-- n69&#45;&gt;n71 -->
<g id="edge48" class="edge">
<title>n69&#45;&gt;n71</title>
<path   d="M2618.12,-432.05C2614.97,-424.18 2611.14,-414.62 2607.61,-405.79"/>
<polygon   points="2610.77,-404.26 2603.81,-396.28 2604.27,-406.86 2610.77,-404.26"/>
</g>
<!-- n72 -->
<g id="node73" class="node">
<title>n72</title>
<ellipse   cx="2610.9" cy="-234" rx="44.39" ry="18"/>
<text text-anchor="middle" x="2610.9" y="-230.3"  font-size="14.00">siphasher</text>
</g>
<!-- n70&#45;&gt;n72 -->
<g id="edge55" class="edge">
<title>n70&#45;&gt;n72</title>
<path   d="M2610.9,-287.7C2610.9,-279.98 2610.9,-270.71 2610.9,-262.11"/>
<polygon   points="2614.4,-262.1 2610.9,-252.1 2607.4,-262.1 2614.4,-262.1"/>
</g>
<!-- n71&#45;&gt;n54 -->
<g id="edge54" class="edge">
<title>n71&#45;&gt;n54</title>
<path   d="M2539.43,-372.61C2415.44,-362.99 2126.19,-339.64 2028.9,-324 2015.98,-321.92 2001.96,-318.9 1989.64,-315.98"/>
<polygon   points="1990.28,-312.54 1979.74,-313.58 1988.63,-319.34 1990.28,-312.54"/>
</g>
<!-- n71&#45;&gt;n70 -->
<g id="edge53" class="edge">
<title>n71&#45;&gt;n70</title>
<path   d="M2600.36,-359.7C2601.9,-351.98 2603.75,-342.71 2605.47,-334.11"/>
<polygon   points="2608.95,-334.6 2607.48,-324.1 2602.08,-333.22 2608.95,-334.6"/>
</g>
<!-- n73&#45;&gt;n11 -->
<g id="edge114" class="edge">
<title>n73&#45;&gt;n11</title>
<path   d="M176.89,-434.15C185.66,-424.85 197.15,-412.67 207.09,-402.12"/>
<polygon   points="209.69,-404.47 214,-394.8 204.6,-399.67 209.69,-404.47"/>
</g>
<!-- n73&#45;&gt;n32 -->
<g id="edge115" class="edge">
<title>n73&#45;&gt;n32</title>
<path   d="M138.3,-442.24C115.56,-434.7 82.55,-420.26 63.9,-396 50.32,-378.35 45.32,-353.32 43.57,-334.3"/>
<polygon   points="47.05,-333.91 42.89,-324.17 40.07,-334.38 47.05,-333.91"/>
</g>
<!-- n73&#45;&gt;n44 -->
<g id="edge116" class="edge">
<title>n73&#45;&gt;n44</title>
<path   d="M150.09,-433.81C142.39,-424.67 132.43,-412.85 123.72,-402.52"/>
<polygon   points="126.2,-400.03 117.08,-394.64 120.85,-404.55 126.2,-400.03"/>
</g>
<!-- n73&#45;&gt;n45 -->
<g id="edge117" class="edge">
<title>n73&#45;&gt;n45</title>
<path   d="M162.41,-431.87C161.73,-407.67 160.48,-363.21 159.67,-334.39"/>
<polygon   points="163.16,-334.09 159.38,-324.19 156.16,-334.28 163.16,-334.09"/>
</g>
<!-- n74 -->
<g id="node75" class="node">
<title>n74</title>
<ellipse   cx="1896.9" cy="-162" rx="46.59" ry="18"/>
<text text-anchor="middle" x="1896.9" y="-158.3"  font-size="14.00">ppv&#45;lite86</text>
</g>
<!-- n75&#45;&gt;n5 -->
<g id="edge36" class="edge">
<title>n75&#45;&gt;n5</title>
<path   d="M2176.45,-216.59C2162.84,-207.06 2145.54,-194.95 2130.82,-184.65"/>
<polygon   points="2132.71,-181.69 2122.51,-178.83 2128.69,-187.43 2132.71,-181.69"/>
</g>
<!-- n75&#45;&gt;n23 -->
<g id="edge34" class="edge">
<title>n75&#45;&gt;n23</title>
<path   d="M2215.49,-216.03C2234.09,-196.59 2266.81,-164.74 2299.9,-144 2324.72,-128.44 2354.91,-115.68 2379.73,-106.59"/>
<polygon   points="2381.07,-109.83 2389.31,-103.16 2378.71,-103.24 2381.07,-109.83"/>
</g>
<!-- n75&#45;&gt;n24 -->
<g id="edge35" class="edge">
<title>n75&#45;&gt;n24</title>
<path   d="M2246.31,-218.75C2289.31,-205.55 2352.39,-186.18 2391.75,-174.1"/>
<polygon   points="2392.93,-177.4 2401.46,-171.12 2390.88,-170.7 2392.93,-177.4"/>
</g>
<!-- n77&#45;&gt;n74 -->
<g id="edge61" class="edge">
<title>n77&#45;&gt;n74</title>
<path   d="M1890.87,-215.7C1891.76,-207.98 1892.81,-198.71 1893.8,-190.11"/>
<polygon   points="1897.28,-190.44 1894.94,-180.1 1890.33,-189.64 1897.28,-190.44"/>
</g>
<!-- n77&#45;&gt;n78 -->
<g id="edge62" class="edge">
<title>n77&#45;&gt;n78</title>
<path   d="M1866.04,-217.46C1851.44,-207.54 1832.33,-194.56 1816.44,-183.75"/>
<polygon   points="1818.22,-180.74 1807.98,-178.01 1814.29,-186.53 1818.22,-180.74"/>
</g>
<!-- n78&#45;&gt;n3 -->
<g id="edge63" class="edge">
<title>n78&#45;&gt;n3</title>
<path   d="M1752.42,-149.53C1745.38,-147.43 1737.94,-145.45 1730.9,-144 1573.91,-111.7 1384.79,-98.44 1291.21,-93.54"/>
<polygon   points="1291.26,-90.04 1281.1,-93.03 1290.91,-97.03 1291.26,-90.04"/>
</g>
<!-- n79&#45;&gt;n33 -->
<g id="edge93" class="edge">
<title>n79&#45;&gt;n33</title>
<path   d="M267.43,-288.38C251.69,-269.55 224.29,-238.55 196.9,-216 182.67,-204.29 165.69,-193.13 150.73,-184.09"/>
<polygon   points="152.11,-180.84 141.72,-178.75 148.54,-186.86 152.11,-180.84"/>
</g>
<!-- n79&#45;&gt;n34 -->
<g id="edge95" class="edge">
<title>n79&#45;&gt;n34</title>
<path   d="M279.05,-287.85C275.07,-250.83 265.65,-163.18 260.84,-118.39"/>
<polygon   points="264.3,-117.8 259.75,-108.23 257.34,-118.55 264.3,-117.8"/>
</g>
<!-- n79&#45;&gt;n35 -->
<g id="edge94" class="edge">
<title>n79&#45;&gt;n35</title>
<path   d="M298.37,-289.12C308.29,-280.09 320.91,-268.62 331.97,-258.57"/>
<polygon   points="334.64,-260.87 339.69,-251.55 329.94,-255.69 334.64,-260.87"/>
</g>
<!-- n79&#45;&gt;n66 -->
<g id="edge96" class="edge">
<title>n79&#45;&gt;n66</title>
<path   d="M322.83,-296.72C339.59,-293.64 359.11,-290.32 376.9,-288 585.65,-260.74 835.49,-244.46 945.78,-238.09"/>
<polygon   points="946.23,-241.57 956.02,-237.51 945.83,-234.59 946.23,-241.57"/>
</g>
<!-- n81&#45;&gt;n9 -->
<g id="edge41" class="edge">
<title>n81&#45;&gt;n9</title>
<path   d="M1352.67,-287.7C1351.68,-279.98 1350.49,-270.71 1349.38,-262.11"/>
<polygon   points="1352.84,-261.58 1348.1,-252.1 1345.9,-262.47 1352.84,-261.58"/>
</g>
<!-- n82&#45;&gt;n23 -->
<g id="edge74" class="edge">
<title>n82&#45;&gt;n23</title>
<path   d="M2368.04,-287.83C2367.16,-257.59 2368.07,-193.36 2387.9,-144 2391.96,-133.89 2398.47,-124.02 2405.07,-115.6"/>
<polygon   points="2407.93,-117.63 2411.62,-107.69 2402.54,-113.16 2407.93,-117.63"/>
</g>
<!-- n82&#45;&gt;n24 -->
<g id="edge75" class="edge">
<title>n82&#45;&gt;n24</title>
<path   d="M2382.05,-288.15C2389.35,-278.12 2398.1,-264.87 2403.9,-252 2412.91,-232 2419.15,-207.9 2423.01,-189.82"/>
<polygon   points="2426.45,-190.45 2425,-179.95 2419.59,-189.06 2426.45,-190.45"/>
</g>
<!-- n82&#45;&gt;n25 -->
<g id="edge76" class="edge">
<title>n82&#45;&gt;n25</title>
<path   d="M2400.39,-290.5C2426.61,-278.42 2463.73,-261.33 2489.83,-249.31"/>
<polygon   points="2491.63,-252.33 2499.24,-244.97 2488.7,-245.98 2491.63,-252.33"/>
</g>
</g>
</svg>
